<?xml version="1.0" encoding="UTF-8" standalone="no"?>
<!-- Created with Inkscape (http://www.inkscape.org/) -->

<svg
   xmlns:dc="http://purl.org/dc/elements/1.1/"
   xmlns:cc="http://creativecommons.org/ns#"
   xmlns:rdf="http://www.w3.org/1999/02/22-rdf-syntax-ns#"
   xmlns:svg="http://www.w3.org/2000/svg"
   xmlns="http://www.w3.org/2000/svg"
   xmlns:sodipodi="http://sodipodi.sourceforge.net/DTD/sodipodi-0.dtd"
   xmlns:inkscape="http://www.inkscape.org/namespaces/inkscape"
   width="210mm"
   height="297mm"
   viewBox="0 0 210 297"
   version="1.1"
   id="svg8"
   inkscape:version="0.92.4 (5da689c313, 2019-01-14)"
   sodipodi:docname="mesosaurs.svg">
  <defs
     id="defs2" />
  <sodipodi:namedview
     id="base"
     pagecolor="#ffffff"
     bordercolor="#666666"
     borderopacity="1.0"
     inkscape:pageopacity="0.0"
     inkscape:pageshadow="2"
     inkscape:zoom="0.35"
     inkscape:cx="50"
     inkscape:cy="560"
     inkscape:document-units="mm"
     inkscape:current-layer="layer1"
     showgrid="false"
     inkscape:window-width="1600"
     inkscape:window-height="877"
     inkscape:window-x="-8"
     inkscape:window-y="-8"
     inkscape:window-maximized="1" />
  <metadata
     id="metadata5">
    <rdf:RDF>
      <cc:Work
         rdf:about="">
        <dc:format>image/svg+xml</dc:format>
        <dc:type
           rdf:resource="http://purl.org/dc/dcmitype/StillImage" />
        <dc:title></dc:title>
      </cc:Work>
    </rdf:RDF>
  </metadata>
  <g
     inkscape:label="Layer 1"
     inkscape:groupmode="layer"
     id="layer1">
    <path
       style="fill:#000000;stroke-width:1.11574674"
       d="m 127.09172,236.56091 c -1.49867,-0.38451 -4.18972,-1.91606 -5.98013,-3.4035 -3.19853,-2.65722 -3.43353,-2.61951 -13.47179,2.16268 -9.936796,4.73386 -10.34277,5.05582 -14.829916,11.76096 -5.755856,8.601 -9.852647,19.46564 -13.262756,35.17264 -2.871027,13.22409 -3.581625,14.91099 -6.021579,14.29505 -2.377572,-0.6002 -2.369574,-0.56168 -1.074622,-5.1801 1.258367,-4.48788 2.98339,-24.93191 2.234339,-26.47996 -0.595569,-1.23081 -4.182493,4.24894 -5.723794,8.74432 -0.683205,1.99258 -2.191106,5.35785 -3.350901,7.47835 -1.159795,2.1205 -2.411502,4.94228 -2.781578,6.2706 -0.43779,1.57133 -1.261528,2.4128 -2.357672,2.40845 -1.306674,-0.005 -1.460572,0.18958 -0.685759,0.86784 0.549467,0.48106 0.474835,1.15495 -0.165913,1.49764 -0.640737,0.3427 -1.777549,0.10194 -2.52624,-0.53485 -1.031119,-0.8771 -0.497751,-3.45703 2.199307,-10.63815 1.958312,-5.21414 4.454526,-11.93609 5.547148,-14.93768 1.154632,-3.17189 5.032061,-10.01293 9.258619,-16.3352 4.66581,-6.97846 7.525755,-12.10833 7.979879,-14.31082 2.347221,-11.38412 3.23811,-17.94508 3.04252,-22.40679 -0.310283,-7.07823 3.889163,-40.61006 5.827562,-46.53196 1.003906,-3.06698 1.498608,-12.78249 1.319623,-25.9164 l -0.28631,-21.01018 -6.236743,-17.00369 C 77.571108,80.245049 76.54486,70.205381 80.654735,52.73212 85.056409,34.018344 88.153895,25.981958 94.922911,15.713618 100.80426,6.7918182 104.84351,2.8654112 110.52887,0.54345322 c 1.91832,-0.78345524 2.59103,-0.56274058 2.67149,0.87645518 0.081,1.4499598 -0.79946,2.4893019 -3.57619,4.2212408 C 99.596258,11.895889 93.688488,30.473796 94.749336,52.417469 c 0.64409,13.322828 0.966354,14.243865 10.948744,31.291313 2.14398,3.661382 3.54446,8.168766 4.02955,12.96893 0.40891,4.046448 1.09251,8.056438 1.5191,8.911088 1.67498,3.35582 3.81411,19.41866 4.29565,32.25628 0.39935,10.64648 0.89121,13.44572 2.32549,13.23468 1.00044,-0.14721 1.89709,-0.79674 1.99252,-1.44341 0.0954,-0.64663 1.18549,-3.45032 2.42235,-6.23039 1.23685,-2.78007 3.65151,-9.22245 5.36592,-14.31638 1.71439,-5.09394 3.85089,-10.35826 4.74778,-11.69847 1.40477,-2.09917 2.00468,-2.11861 4.33017,-0.14049 1.48471,1.26294 2.38974,2.75912 2.01116,3.32482 -0.37857,0.56571 -0.31645,1.34489 0.13806,1.7315 1.06783,0.90831 1.27889,5.19417 0.32592,6.61818 -0.40561,0.60613 -0.39489,1.39345 0.0238,1.74963 0.42917,0.36504 -1.15434,3.41915 -3.62964,7.00037 -2.41502,3.49403 -6.54358,10.19078 -9.17463,14.88165 -3.80316,6.78065 -4.47664,8.60635 -3.28571,8.90701 0.82389,0.20797 2.01778,0.8203 2.6531,1.36072 1.35917,1.15615 3.06772,-2.16051 7.39779,-14.36077 4.27437,-12.04328 7.26323,-13.71205 11.19371,-6.24977 1.73729,3.29839 0.38828,7.00604 -7.07534,19.44598 l -6.86644,11.4446 -6.71618,1.93695 -6.71619,1.93695 -0.65158,8.31784 c -0.70523,9.00275 -3.40748,23.13148 -5.32238,27.82814 l -1.19249,2.92479 3.48426,-1.37885 c 3.97274,-1.57217 4.84761,-1.10709 6.40739,3.40613 0.61347,1.77507 2.08964,3.63857 3.28039,4.14114 2.09169,0.8828 2.07302,0.944 -0.55156,1.80803 -1.49409,0.49186 -3.09761,1.46374 -3.56336,2.15972 -0.46576,0.69597 -0.99173,0.72428 -1.1688,0.063 -0.17709,-0.66138 -0.80876,-0.94216 -1.4037,-0.62396 -0.59496,0.31821 -0.58735,0.86084 0.0171,1.20599 1.79408,1.0245 4.12829,0.74827 4.31406,-0.51055 0.0952,-0.64484 1.11243,-1.31067 2.26057,-1.47962 3.04075,-0.44744 7.77407,-3.68581 8.03689,-5.49856 0.12464,-0.85967 -0.49722,-2.43517 -1.38191,-3.50115 -1.36475,-1.6444 -2.13757,-1.44886 -5.0996,1.29028 -4.30611,3.98209 -4.59872,2.72856 -0.55879,-2.39378 2.70476,-3.42938 3.2865,-3.65868 5.71485,-2.25251 6.09347,3.52848 5.67173,7.93188 -1.1922,12.44803 l -4.2724,2.81105 3.75369,2.72669 c 3.03358,2.20359 3.5759,3.11643 2.82692,4.75825 -0.61,1.33713 -1.85815,1.7926 -3.65163,1.33246 z m -51.517342,55.07718 c -0.485005,0.12379 -1.106077,0.98761 -1.380158,1.91961 -0.302892,1.02993 0.04297,0.94167 0.881822,-0.22506 0.759097,-1.05576 0.983341,-1.81834 0.498325,-1.69456 z m 1.437229,-9.74868 c -0.449388,0.11466 -0.767827,1.1462 -0.707618,2.29228 0.08696,1.65622 0.254652,1.61343 0.817068,-0.20851 0.389201,-1.26076 0.339949,-2.19845 -0.109462,-2.08377 z m 33.025063,-53.22866 c -5.0916,-0.73402 -6.3014,-1.51222 -5.13051,-3.30012 0.56551,-0.864 0.2552,-0.99345 -0.93155,-0.38889 -1.43213,0.72956 -1.47174,0.44061 -0.20261,-1.47815 0.95174,-1.43903 1.72484,-1.83479 1.94893,-0.99789 0.20428,0.76293 0.57563,0.005 0.82524,-1.68531 0.44185,-2.9913 0.39223,-2.99534 -1.879,-0.15318 -2.35593,2.94812 -4.68278,2.63523 -4.21031,-0.56614 0.16966,-1.14959 0.5314,-1.08974 1.14911,0.19014 0.79553,1.64823 1.13235,1.37892 2.86436,-2.29026 1.43355,-3.03691 2.07202,-3.75029 2.3678,-2.64561 1.00336,3.74725 6.25773,-17.08013 5.83182,-23.11623 -0.16384,-2.32203 -0.006,-3.4384 0.35249,-2.48082 0.35771,0.95755 0.43992,-0.3861 0.18268,-2.98589 -0.25724,-2.5998 -0.18389,-3.93023 0.16304,-2.95656 0.34691,0.9737 0.59295,-0.41127 0.54673,-3.07772 -0.1232,-7.10891 2.00533,-9.44542 10.15307,-11.14519 l 7.00034,-1.46038 3.81882,-7.24297 c 2.76434,-5.24302 3.10484,-6.29043 1.23315,-3.79324 l -2.58565,3.44979 1.49379,-4.18536 c 1.19302,-3.34268 1.87133,-4.22809 3.36898,-4.39751 1.04832,-0.11859 2.60226,-1.55093 3.52402,-3.24827 1.71888,-3.16514 1.24046,-4.84198 -0.91214,-3.19699 -0.74641,0.57038 -0.78898,0.20924 -0.10575,-0.897 1.17086,-1.89577 -0.28949,-4.16487 -2.06819,-3.21357 -0.54397,0.29093 -2.22852,4.37136 -3.74348,9.06759 -1.51493,4.69624 -3.91941,10.49951 -5.3433,12.89612 -2.19125,3.68823 -2.84469,4.18408 -4.25406,3.22859 -3.61228,-2.44895 -6.20112,-2.50824 -8.44119,-0.19336 -4.48874,4.63864 -5.23849,5.00719 -4.42945,2.17731 0.70845,-2.47809 0.67962,-2.50872 -0.63118,-0.67131 -0.75541,1.05889 -1.39586,1.47099 -1.4232,0.91571 -0.0273,-0.55525 1.54389,-2.78982 3.49163,-4.9657 2.86468,-3.20021 3.39481,-3.46398 2.77438,-1.38042 -0.73917,2.4823 -0.71093,2.49658 0.77859,0.39327 0.85006,-1.20031 1.24203,-2.74618 0.87106,-3.43524 -0.50776,-0.94303 -0.21841,-1.42857 1.17021,-1.96367 1.9097,-0.73589 8.39404,-10.49032 10.05791,-15.13026 0.56159,-1.566 0.36726,-2.78804 -0.47726,-3.00123 -1.0222,-0.25805 -0.89807,-0.86655 0.43963,-2.15463 1.02531,-0.98728 2.31418,-1.78738 2.86416,-1.77799 0.54999,0.009 1.27395,-0.87703 1.60883,-1.96978 0.49212,-1.60589 0.30778,-1.83013 -0.96138,-1.16962 -1.071,0.5574 -1.31336,0.42454 -0.76229,-0.41782 0.44459,-0.6791 1.32296,-1.22626 1.95239,-1.21554 1.74826,0.0299 2.45023,-3.5264 0.77937,-3.9482 -0.92907,-0.23452 -1.02083,-1.09018 -0.25013,-2.33225 0.69006,-1.11204 0.67613,-1.54824 -0.0321,-1.00702 -1.93266,1.4769 -2.82647,-0.0222 -0.97627,-1.6375 1.26099,-1.10084 1.24757,-1.25362 -0.0583,-0.6628 -2.11295,0.95604 -6.4257,13.51827 -4.86999,14.18536 0.58964,0.25283 0.44944,0.77277 -0.3192,1.18388 -0.75383,0.40318 -1.18418,1.71245 -0.95645,2.90942 0.2278,1.19701 -0.43259,4.3383 -1.4675,6.98063 -2.31114,5.90078 -3.36461,7.54692 -2.98851,4.6698 0.23156,-1.77135 5.8e-4,-1.75923 -1.23507,0.0647 -0.83574,1.23411 -1.35671,2.85304 -1.15723,3.59798 0.22871,0.85424 -0.19897,1.56885 -1.15798,1.93487 -3.06876,1.17121 -13.32506,13.72252 -13.45638,16.46742 -0.15297,3.19818 -3.12194,1.13901 -3.59579,-2.49392 -0.24962,-1.91376 -0.1238,-3.22297 0.2796,-2.90936 0.40341,0.31359 0.9151,1.99058 1.1371,3.72661 0.27127,2.12117 0.40907,1.66536 0.42013,-1.38967 0.0113,-2.95425 0.34142,-4.08178 0.94457,-3.22009 0.53839,0.76918 1.23714,0.63429 1.66399,-0.32125 0.40473,-0.90598 1.21974,-1.66535 1.81123,-1.68744 1.10406,-0.0413 10.82067,-10.31222 10.23056,-10.81418 -0.18044,-0.15348 -2.09691,-0.20312 -4.25885,-0.11022 -2.16192,0.0929 -3.41458,9.9e-4 -2.78366,-0.20311 1.8607,-0.60327 0.0559,-31.00907 -2.48901,-41.93366 -1.28919,-5.53404 -2.30773,-11.61094 -2.26347,-13.504195 0.0443,-1.893286 -0.0815,-2.680479 -0.27938,-1.749349 -0.23731,1.116401 -0.62693,1.13964 -1.14401,0.06824 -0.4313,-0.893579 -0.30562,-1.880634 0.27926,-2.193448 0.58488,-0.312813 0.17133,-2.751528 -0.919,-5.419362 -2.13943,-5.234768 -4.61301,-8.148254 -4.95434,-5.83547 -0.11641,0.788722 -0.377288,1.293145 -0.57973,1.120941 -0.202441,-0.172204 -1.208068,-0.548738 -2.234721,-0.836743 -1.026676,-0.28799 -1.348017,-0.68515 -0.71412,-0.882581 0.633931,-0.197406 -0.118608,-3.386415 -1.67225,-7.086684 -1.553627,-3.700256 -2.839646,-7.682225 -2.857781,-8.848814 -0.0261,-1.676847 0.07841,-1.755498 0.498786,-0.375521 0.366308,1.202408 0.61169,1.204043 0.788606,0.0051 0.141265,-0.95716 -0.543505,-2.297805 -1.521704,-2.9792 -2.845377,-1.982062 -3.079352,-2.572217 -1.279449,-3.228138 1.266894,-0.461638 1.655645,-3.073629 1.545902,-10.386939 -0.08066,-5.373611 0.237654,-12.169209 0.707292,-15.101322 0.46966,-2.932106 0.332985,-5.22734 -0.303691,-5.100503 -0.636687,0.126822 -0.308427,-0.499734 0.729431,-1.392345 1.858251,-1.598164 1.848981,-1.607504 -0.607865,-0.612084 -1.877043,0.760516 -2.24074,0.631017 -1.468571,-0.522842 0.564497,-0.84354 1.722594,-1.711388 2.573535,-1.928545 1.089816,-0.278111 1.920204,-1.689151 2.809136,-4.773464 1.261471,-4.376731 1.26029,-4.375893 -2.699169,1.916671 -6.250614,9.933827 -6.136586,9.684384 -3.977913,8.702165 1.419589,-0.645928 1.284759,-0.255924 -0.575162,1.663573 -1.403659,1.448635 -1.962587,2.515275 -1.323717,2.526152 0.60818,0.0104 0.61205,1.759396 0.009,3.886729 -0.603433,2.127334 -0.627316,3.875878 -0.0531,3.885665 0.574239,0.0097 0.451796,0.485209 -0.272179,1.056583 -0.80962,0.638971 -0.75561,1.61044 0.140308,2.523959 0.801127,0.816833 1.809015,0.958524 2.239784,0.314831 0.561617,-0.839237 0.811353,-0.598428 0.882711,0.851278 0.155609,3.159774 -3.174908,3.675293 -3.588274,0.55539 -0.254382,-1.920212 -0.487457,-2.061146 -1.328959,-0.803689 -1.609634,2.405293 -3.355761,20.165732 -2.088575,21.243651 0.62771,0.533949 0.782171,1.507458 0.343234,2.16336 -1.09989,1.643577 0.200991,9.218056 1.587235,9.241673 0.619047,0.01016 1.014042,0.77472 0.877749,1.698179 -0.165193,1.119331 -0.398707,1.115348 -0.700552,-0.01141 -0.285275,-1.065477 -0.535787,-1.128336 -0.677232,-0.169958 -0.123445,0.836538 0.698201,1.896423 1.82589,2.355323 1.394299,0.567371 1.623144,1.062853 0.7152,1.54844 -0.89305,0.477647 -0.746824,0.862604 0.441591,1.162632 1.197359,0.302259 1.336655,0.683893 0.427113,1.170343 -0.909519,0.486437 -0.770245,0.868097 0.427125,1.170356 1.309193,0.330481 1.365972,0.668218 0.215795,1.283367 -1.140693,0.610089 -1.097077,0.95196 0.162032,1.269795 0.947634,0.239237 1.416315,0.893198 1.041503,1.453288 -0.374813,0.560078 -0.06795,2.339707 0.681855,3.954743 0.749827,1.615036 2.062689,4.939959 2.917461,7.388719 0.854766,2.44877 2.088732,4.46141 2.742159,4.47255 0.653416,0.0114 0.593926,0.489 -0.132467,1.06236 -0.826709,0.65242 -0.693151,2.32045 0.35715,4.46068 0.922681,1.88023 1.506168,6.47916 1.296639,10.21985 -0.37182,6.63782 0.720071,9.00211 2.156409,4.66933 0.57318,-1.72903 0.75218,-1.74205 0.89217,-0.0648 0.12582,1.50719 -0.30652,2.27593 -1.53503,2.72937 -1.252541,0.46231 -1.956412,2.14953 -2.630258,6.30484 -1.855904,11.44442 -1.869179,11.47799 -2.388192,6.03885 -0.276567,-2.89847 -0.487086,-0.2861 -0.467804,5.80524 0.01924,6.09134 -0.742218,13.60011 -1.692225,16.68613 -0.949997,3.08603 -1.221771,5.61959 -0.603916,5.6301 0.617854,0.0104 0.605794,0.55964 -0.02689,1.2203 -1.217608,1.27154 -1.491014,2.83471 -3.833588,21.91892 -0.813997,6.63139 -1.175118,12.31642 -0.802488,12.63338 0.372641,0.317 0.212904,1.2706 -0.354956,2.11916 -0.899833,1.34464 -0.472754,2.64924 1.225877,3.74468 0.271246,0.17495 0.134548,0.88052 -0.303792,1.568 -0.438352,0.68748 -1.604357,6.01066 -2.59114,11.82927 -1.732921,10.21832 -2.013628,10.92954 -8.227039,20.84433 -5.73789,9.156 -7.298631,13.17394 -4.029483,10.37351 0.697009,-0.59707 0.869166,-0.1073 0.446811,1.27094 -0.377939,1.23327 -0.82339,1.73353 -0.989888,1.11171 -0.166498,-0.62184 -1.185749,-0.80884 -2.265006,-0.41557 -1.583916,0.57717 -1.802096,1.04693 -1.131502,2.43636 0.687446,1.42433 0.473969,1.85646 -1.237228,2.50463 -1.714134,0.64927 -1.782319,0.79201 -0.398482,0.8342 1.287526,0.0392 1.233673,0.47055 -0.235404,1.8851 -1.047702,1.00885 -3.03217,5.0634 -4.409932,9.01013 -2.132302,6.10817 -2.161473,6.50749 -0.196108,2.6837 1.269898,-2.47071 3.512394,-6.19221 4.983327,-8.26999 1.470922,-2.07777 2.337501,-4.06436 1.925744,-4.41463 -0.468288,-0.39832 0.292789,-1.59918 2.031908,-3.20625 1.529377,-1.41312 3.096733,-3.52994 3.48302,-4.70401 0.768862,-2.33684 0.720555,-2.56356 1.629782,7.64716 0.238711,2.68063 0.735315,3.56662 1.707619,3.04659 1.746443,-0.93405 5.458421,-10.07334 4.100751,-10.09646 -0.558928,-0.0104 0.06829,-1.07977 1.393917,-2.37829 1.704605,-1.66981 2.008756,-2.36781 1.03896,-2.38435 -0.904951,-0.0153 -0.717765,-1.00923 0.55048,-2.92263 1.31294,-1.98087 1.424268,-2.64041 0.351446,-2.08208 -1.252607,0.65189 -1.43805,0.38582 -0.916742,-1.31532 0.359434,-1.17291 1.359695,-3.10667 2.222808,-4.29728 1.443045,-1.99061 1.480552,-1.91561 0.466027,0.93195 -1.091993,3.06503 -1.080439,3.0666 1.129814,0.15404 l 2.23309,-2.94266 -1.476187,3.5865 c -1.274555,3.09664 -0.981653,2.87676 2.144464,-1.60986 2.439791,-3.50155 3.522772,-5.93493 3.32059,-7.46089 -0.245743,-1.85468 -0.502184,-1.96251 -1.416795,-0.5958 -0.614221,0.91783 -0.749197,1.98146 -0.299955,2.36359 0.44923,0.38213 0.283992,0.97975 -0.367208,1.32804 -1.711366,0.9153 -2.048727,-1.44184 -0.530961,-3.70985 1.33454,-1.99423 6.523139,-2.94836 6.96941,-1.28159 0.137688,0.51417 1.244164,0.55934 2.458844,0.10038 1.51894,-0.57394 1.74609,-0.84941 0.7275,-0.88221 -0.81455,-0.0262 -1.17127,-0.51051 -0.79269,-1.07622 0.37857,-0.5657 1.23561,-1.01924 1.90451,-1.00784 0.66891,0.0115 1.29827,-0.53541 1.39859,-1.21513 0.10035,-0.67972 0.69244,-1.22718 1.31591,-1.21652 0.62343,0.0104 1.02859,0.73035 0.9003,1.59945 -0.18064,1.22398 3.69955,0.062 6.63608,-1.98725 0.0912,-0.0639 -1.79691,-0.39881 -4.19603,-0.74467 z m -30.920188,37.70717 c -0.190382,-1.71742 -0.733819,-3.0876 -1.207664,-3.04485 -0.473845,0.0428 -0.487187,-0.0818 -0.0297,-0.27674 0.457521,-0.19493 0.861482,-1.32059 0.897662,-2.50149 0.05085,-1.6594 0.221161,-1.80764 0.749827,-0.65263 0.376207,0.82195 0.515717,3.31781 0.310002,5.54636 -0.37353,4.04655 -0.374487,4.04777 -0.72015,0.92935 z m 19.563721,-33.65458 c -2.180497,-2.19153 -3.027096,-5.13576 -0.974758,-3.38998 0.661628,0.56278 1.895426,0.47675 2.741775,-0.19118 1.86737,-1.47371 2.49066,0.24014 1.2237,3.36478 -0.76685,1.89119 -1.28668,1.92899 -2.990717,0.21638 z m -19.20872,23.87221 c -1.911861,0.83262 -3.652803,-0.4066 -3.014653,-2.14589 1.503569,-4.09805 4.980267,-9.88712 5.275542,-8.78433 0.178975,0.6684 -0.776545,2.8619 -2.12337,4.87446 -2.109893,3.15281 -2.185481,3.76633 -0.546216,4.43341 2.138018,0.87002 2.137827,0.86928 0.408697,1.62235 z m 23.399997,-39.00841 c 0.15664,-1.19835 0.59457,-2.64166 0.97314,-3.20737 0.37858,-0.5657 0.56014,-0.0481 0.4035,1.15025 -0.15665,1.19836 -0.59457,2.64167 -0.97314,3.20738 -0.37857,0.56572 -0.56014,0.0481 -0.4035,-1.15026 z m 3.34024,-6.84305 c -0.46417,-0.39484 -0.9292,-0.14018 -1.03341,0.5659 -0.10417,0.70605 -0.86369,1.11353 -1.6877,0.90553 -1.53983,-0.38871 -1.92083,-8.96066 -0.4931,-11.09412 0.42189,-0.63042 0.67539,0.18568 0.56334,1.81359 -0.11205,1.62789 0.0876,2.55032 0.44372,2.04984 0.35608,-0.5005 0.81038,0.61228 1.00954,2.47281 0.34209,3.19571 0.40328,3.25431 1.10652,1.05946 0.40943,-1.27789 1.04711,-2.7757 1.41707,-3.32854 0.36995,-0.55282 0.16115,-1.01385 -0.46401,-1.02449 -1.30412,-0.0222 -0.49156,-5.32725 1.28755,-8.40604 0.88754,-1.536 1.13365,-0.61269 0.94722,3.55394 -0.13853,3.09594 -0.48512,6.00973 -0.77015,6.47508 -0.28508,0.46536 -0.73529,1.93259 -1.00049,3.26054 -0.32268,1.61569 -0.76138,2.17694 -1.32612,1.69655 z m -2.78611,-2.57583 c -0.36712,-2.31997 -0.41875,-2.30679 -0.55109,0.14062 -0.0803,1.48522 -0.015,2.81187 0.14519,2.94811 0.6348,0.53997 0.79146,-0.6522 0.4059,-3.08873 z m 4.73524,-8.88453 c -0.37469,-2.3678 -0.42345,-2.3333 -0.65021,0.45985 -0.13482,1.66075 -0.27598,3.29597 -0.31369,3.63378 -0.0377,0.33783 0.2549,0.13089 0.65021,-0.45982 0.39532,-0.59073 0.53648,-2.22594 0.31369,-3.63381 z m -24.252154,43.25089 c -0.01125,-0.85268 1.124999,-3.69884 2.524338,-6.3248 2.144228,-4.0238 2.588643,-4.43945 2.826578,-2.64367 0.158601,1.19709 -0.947544,3.96859 -2.524327,6.3248 -1.640616,2.45157 -2.814946,3.54989 -2.826589,2.64367 z m 14.969201,-25.11643 c -0.166723,-0.14183 -0.02914,-1.15198 0.305772,-2.24483 0.349162,-1.13937 0.754754,-1.44225 0.950821,-0.71001 0.32866,1.22745 -0.631932,3.48619 -1.256593,2.95484 z m -8.625404,10.41762 c -0.322174,-0.27404 -0.399787,-1.79272 -0.172472,-3.37483 0.45247,-3.14931 1.601353,-3.01495 1.759965,0.20584 0.112387,2.28181 -0.707167,3.91782 -1.587493,3.16899 z m 0.87703,-9.53855 c 0.549849,-4.02587 2.432663,-19.43098 3.368581,-27.56172 0.451492,-3.92232 0.481967,-7.83375 0.06772,-8.69205 -0.41425,-0.8583 -0.295451,-2.24454 0.26399,-3.08052 0.690304,-1.03152 1.134438,0.0484 1.382037,3.36063 0.200664,2.68432 0.109461,5.26229 -0.202779,5.72882 -0.312207,0.46652 -0.525156,1.80207 -0.473227,2.96789 0.24968,5.60498 -2.571009,26.92547 -3.784973,28.60922 -0.660256,0.91566 -0.867625,0.47096 -0.621342,-1.33227 z m 12.134197,-20.28321 c -0.62204,-0.52913 -1.12011,-2.82396 -1.10682,-5.0996 0.0206,-3.51746 0.0847,-3.66393 0.42818,-0.97731 0.22221,1.73815 0.74974,3.07202 1.17227,2.96419 0.42255,-0.10781 0.73879,0.76492 0.70282,1.93937 -0.0501,1.6334 -0.33133,1.90925 -1.19645,1.17335 z m 9.46608,-38.62108 c -2.62733,2.01286 -4.56207,1.08959 -2.16115,-1.03132 1.50976,-1.33368 1.45518,-1.37461 -0.74589,-0.55947 -1.30617,0.48371 -2.82114,1.98015 -3.36662,3.3254 -0.75698,1.86692 -0.61984,2.25236 0.57929,1.6283 0.86408,-0.4497 1.24081,-0.31171 0.83719,0.30667 -1.24633,1.90937 -2.64162,1.71295 -2.92312,-0.41155 -0.14763,-1.11432 0.29103,-2.86201 0.97477,-3.88375 1.59321,-2.38073 5.74243,-3.46433 6.23409,-1.62805 0.2428,0.90674 0.6162,0.62583 1.05003,-0.78987 0.37029,-1.20834 0.81384,-1.67202 0.98564,-1.03039 0.1718,0.64168 0.8771,0.73498 1.56768,0.20684 0.85131,-0.65093 0.92689,-0.46003 0.23483,0.59321 -0.56067,0.85466 -2.03128,2.32744 -3.26671,3.27394 z M 96.244446,174.8166 c -0.945204,-0.80403 0.0189,-3.90319 1.804515,-5.80061 0.944461,-1.00362 0.997605,-0.19933 0.162875,2.46537 -0.715807,2.28508 -1.546476,3.69329 -1.96739,3.33524 z m 12.223384,-32.29906 c -0.47118,-6.95556 -0.3254,-8.66968 0.50616,-5.95136 0.89761,2.93423 1.13164,7.23809 0.54257,9.97756 -0.32456,1.50934 -0.79649,-0.30246 -1.04873,-4.0262 z m -8.54555,16.05879 c -0.449242,-0.38213 -0.292553,-0.97517 0.34819,-1.31786 0.64074,-0.34269 1.31804,-0.49289 1.50512,-0.33377 0.18706,0.15914 0.0304,0.75217 -0.3482,1.31788 -0.37857,0.5657 -1.05588,0.71589 -1.50511,0.33375 z m 4.60675,-16.5706 c 0.0378,-2.45864 0.39741,-4.55376 0.79922,-4.65585 0.88535,-0.22487 0.69838,6.7856 -0.21747,8.15416 -0.35773,0.53457 -0.61952,-1.03967 -0.58175,-3.49831 z m -3.81593,-0.20871 c 0.27408,-0.93199 0.89515,-1.79582 1.38017,-1.9196 0.48501,-0.12378 0.26076,0.63878 -0.49831,1.69456 -0.83886,1.16674 -1.18473,1.25499 -0.88186,0.22504 z m 4.94305,-13.16633 c -0.59994,-0.0104 -0.82699,-0.8795 -0.50454,-1.93171 0.32244,-1.05222 0.90197,-1.64459 1.28783,-1.31636 1.04551,0.88934 0.47154,3.26945 -0.78329,3.24807 z m -5.30408,-20.80673 c -0.744911,-1.14053 -1.27064,-2.64111 -1.1683,-3.33463 0.289639,-1.96255 1.47124,-0.41938 2.02378,2.64307 0.48132,2.66778 0.45119,2.69215 -0.85548,0.69156 z m 3.85556,-15.006935 c -0.37226,-0.316655 -0.63786,-1.750978 -0.59021,-3.187397 0.0785,-2.368148 0.17149,-2.359055 0.99679,0.09766 0.94127,2.801986 0.77153,4.091886 -0.40658,3.089752 z m -7.052484,6.913389 c -0.424233,-0.360827 -0.676073,-1.301372 -0.55967,-2.0901 0.116402,-0.788707 0.558748,-1.13878 0.982947,-0.777942 0.424199,0.360837 0.676039,1.301393 0.559637,2.090099 -0.116403,0.788728 -0.558715,1.138789 -0.982914,0.777943 z M 100.86215,86.74313 c -0.42421,-0.360844 -0.46154,-1.118924 -0.0829,-1.684621 0.37857,-0.565709 1.03538,-0.733333 1.45959,-0.372489 0.4242,0.360833 0.46154,1.118925 0.0829,1.684634 -0.37857,0.565709 -1.03539,0.733322 -1.45959,0.372476 z m -8.951728,9.22923 c -0.502172,-1.033275 -0.545349,-1.972524 -0.09596,-2.087207 0.449388,-0.114662 0.860256,0.730718 0.91303,1.878706 0.07627,1.658953 -0.09135,1.701719 -0.817079,0.208501 z m 2.839814,-3.154495 c -0.337091,-0.301044 -0.833791,-1.438055 -1.103114,-2.527707 -0.422005,-1.707351 -0.307976,-1.830013 0.825074,-0.887503 0.723423,0.601059 1.219521,1.738984 1.103118,2.527694 -0.116403,0.788723 -0.487694,1.188103 -0.825078,0.887516 z M 91.23463,85.756443 c -0.583126,-1.118087 -1.464071,-2.410965 -1.957659,-2.873064 -0.493566,-0.462109 -0.460571,-1.073797 0.07335,-1.359378 1.422683,-0.760894 2.077234,0.107556 2.536005,3.365032 0.4027,2.859316 0.393498,2.871567 -0.651774,0.867384 z M 88.966755,78.187266 C 88.50551,77.823199 87.909232,76.27263 87.64162,74.741618 87.373997,73.21062 87.532384,72.25587 87.993618,72.619962 c 0.461245,0.364068 1.057534,1.914624 1.325135,3.445635 0.267623,1.530999 0.109236,2.485762 -0.351998,2.121669 z m 1.775558,-22.811268 c -0.433976,-1.544428 -0.474869,-2.888222 -0.0909,-2.986212 0.383992,-0.09798 0.739061,1.165626 0.789033,2.808036 0.08685,2.853177 0.05569,2.861107 -0.698157,0.178176 z M 116.63713,218.89977 c -0.1703,-0.63601 -0.94897,-0.6518 -1.73029,-0.0353 -0.94763,0.74788 -0.92108,1.2473 0.0798,1.49995 1.7393,0.43906 2.07948,0.1372 1.65055,-1.46472 z M 77.285147,271.6734 c -0.451435,-0.384 -0.813838,0.33331 -0.855519,1.69336 -0.03971,1.29777 0.04781,2.46178 0.194679,2.58668 0.146833,0.12493 0.531872,-0.63705 0.85552,-1.69334 0.323681,-1.05626 0.236078,-2.22027 -0.19468,-2.5867 z m -17.492824,14.61027 c -0.485005,0.12379 -1.106077,0.98758 -1.380158,1.91958 -0.30288,1.02996 0.04297,0.9417 0.881833,-0.22503 0.759097,-1.05578 0.98333,-1.81833 0.498325,-1.69455 z M 137.08765,132.08428 c -0.42421,-0.36086 -1.09931,-0.16592 -1.50022,0.43317 -0.40092,0.59911 -0.19044,1.09844 0.46774,1.10965 0.65817,0.0114 1.33327,-0.18373 1.50022,-0.43318 0.16694,-0.24947 -0.0435,-0.74881 -0.46774,-1.10964 z m -11.14308,11.94125 c -0.48501,0.12379 -1.10608,0.98759 -1.38015,1.9196 -0.30291,1.02994 0.043,0.94168 0.88182,-0.22505 0.75909,-1.05577 0.98334,-1.81834 0.49832,-1.69457 z M 97.140713,121.88551 c 0.415075,-1.21474 0.292159,-2.43643 -0.273181,-2.71489 -0.565318,-0.27847 -1.686346,-3.1847 -2.491185,-6.45833 -1.948374,-7.925 -3.875119,-13.336647 -6.270298,-17.61139 -1.086581,-1.939215 -2.504595,-5.423252 -3.151148,-7.742303 -0.646553,-2.31905 -1.517699,-4.129135 -1.93588,-4.022417 -1.197325,0.305545 5.062852,17.60749 6.630321,18.32488 0.772507,0.35358 0.960953,0.76054 0.418709,0.90446 -0.542222,0.14389 0.25724,3.83248 1.776559,8.19689 1.754442,5.03976 2.847566,11.66096 2.995749,18.14565 0.232535,10.17541 0.235584,10.18465 0.889483,2.69822 0.360897,-4.1317 0.995761,-8.50605 1.410871,-9.72077 z M 95.246986,70.71773 c -0.424199,-0.360844 -0.550918,0.235445 -0.281584,1.325083 0.269322,1.089651 0.836766,2.276407 1.260965,2.637253 0.424199,0.360833 0.550918,-0.235444 0.281596,-1.325095 C 96.23863,72.265332 95.671197,71.078576 95.246986,70.71773 Z M 81.60625,73.175778 c -0.667895,-3.18183 -0.923199,-3.564277 -1.014008,-1.518898 -0.06682,1.5035 0.280313,4.647282 0.771269,6.98618 0.667906,3.181832 0.923199,3.564277 1.014019,1.518912 0.06671,-1.503527 -0.280324,-4.647295 -0.77128,-6.986194 z m 45.44117,148.034852 c -0.66892,-0.0114 -1.30377,0.57261 -1.41079,1.29779 -0.10699,0.72518 -0.55861,0.56431 -1.00352,-0.35754 -0.44492,-0.92181 -0.65782,-1.66328 -0.47312,-1.6477 0.18472,0.0156 1.35809,-0.0749 2.60755,-0.20127 1.24944,-0.12633 2.0972,0.0312 1.8839,0.34993 -0.2133,0.31874 -0.93511,0.57019 -1.60402,0.55879 z"
       id="path826"
       inkscape:connector-curvature="0" />
  </g>
</svg>
