<?xml version="1.0" encoding="utf-8"?>
<!-- Generator: Adobe Illustrator 23.0.3, SVG Export Plug-In . SVG Version: 6.00 Build 0)  -->
<svg version="1.1" id="Layer_1" xmlns="http://www.w3.org/2000/svg" xmlns:xlink="http://www.w3.org/1999/xlink" x="0px" y="0px"
	 viewBox="0 0 512 512" style="enable-background:new 0 0 512 512;" xml:space="preserve">
<style type="text/css">
	.st0{fill:#129B12;}
	.st1{fill:#097C09;}
	.st2{fill:#009000;}
	.st3{fill:#28A528;}
	.st4{fill:none;stroke:#000000;stroke-width:0.3;}
	.st5{clip-path:url(#SVGID_2_);}
	.st6{fill:#E9001A;}
	.st7{fill:#BF6101;}
	.st8{fill:#9A4D01;}
	.st9{fill:#121419;}
</style>
<g>
	<path class="st0" d="M479.7,245.3c0-34.6-21.1-64.2-51.3-76.9c5.3-10.2,8.3-21.9,8.3-34.1c0-41.1-33.5-74.5-74.9-74.5
		c-11.8,0-22.9,2.7-32.8,7.6C320.3,35.9,291.4,13,257,13s-63.3,23-72.1,54.4c-9.9-4.8-21.1-7.6-32.8-7.6
		c-41.3,0-74.9,33.3-74.9,74.5c0,12.3,3,24,8.3,34.1c-30.1,12.6-51.3,42.4-51.3,76.9c0,44.8,35.5,81.3,80.1,83.3
		c6.2,22.4,30.2,39.1,58.9,39.1c16.3,0,31-5.4,41.9-14.1c10.9,8.7,25.6,14.1,41.9,14.1s31-5.4,41.9-14.1
		c10.9,8.7,25.6,14.1,41.9,14.1c28.7,0,52.7-16.7,58.9-39.1C444.2,326.6,479.7,290,479.7,245.3z"/>
	<g>
		<path class="st1" d="M252.5,13.1c-0.9,0.1-1.8,0.1-2.8,0.2c-0.3,0-0.6,0.1-0.8,0.1c-1,0.1-2,0.2-2.9,0.4c-0.2,0-0.4,0.1-0.5,0.1
			c-1.2,0.2-2.3,0.4-3.4,0.6l0,0c19.7,4,38.1,17.6,49.7,34.7c8.2,12.2,22.3,19.2,37,18.2c0.1,0,0.2,0,0.3,0
			C320.3,35.9,291.4,13,257,13c-1.2,0-2.4,0-3.6,0.1C253.1,13.1,252.8,13.1,252.5,13.1z"/>
		<path class="st1" d="M428.5,168.4c5.3-10.2,8.3-21.9,8.3-34.1c0-41.1-33.5-74.5-74.9-74.5c-5.1,0-10.1,0.5-15,1.5
			c34.2,6.9,59.9,37,59.9,73c0,12.3-3,24-8.3,34.1c30.1,12.6,51.3,42.4,51.3,76.9c0,44.8-35.5,81.3-80.1,83.3
			c-5.1,18.4-22.1,32.8-43.9,37.5c4.8,1,9.8,1.6,15,1.6c28.7,0,52.7-16.7,58.9-39.1c44.6-2,80.1-38.5,80.1-83.3
			C479.7,210.7,458.6,181.1,428.5,168.4z"/>
	</g>
	<path class="st2" d="M203.4,341.2c-6.8,11.4-34.7,24.2-45.1,24.9c1.1,0.2,2.3,0.5,3.5,0.6c0.1,0,0.2,0,0.3,0
		c1.2,0.2,2.4,0.3,3.6,0.5h0.1c1.1,0.1,2.2,0.2,3.3,0.3c0.3,0,0.5,0,0.8,0c1.1,0.1,2.3,0.1,3.5,0.1l0,0c14.8,0,28.4-4.5,38.9-11.8
		l1.8-1.3l-9.4-15.3L203.4,341.2z"/>
	<path class="st3" d="M242.8,71.4c-21,0-39.1,12.4-47.3,30.2c-8.5-6-18.8-9.4-30-9.4c-28.7,0-52,23.2-52,51.7c0,9.4,2.5,18.2,7,25.8
		c-24.9,3.8-44,25.3-44,51.1c0,28.5,23.3,51.7,52,51.7s166.2-121,166.2-149.5S271.5,71.4,242.8,71.4z"/>
	<path class="st4" d="M191,501.7"/>
	<g>
		<defs>
			<polygon id="SVGID_1_" points="325.8,501.7 191,501.7 210,467.9 220,436.1 226.2,399.8 219.5,367.9 212.3,355.7 185.6,359.5 
				154.2,361.5 137.3,349.1 118.6,338.9 108.1,321.7 86,321.7 68.9,304.8 52.6,297.5 38.8,272.5 34.4,250.8 34.2,229.3 45.2,204 
				60.9,184.3 81.6,163.5 78,127.9 81.6,107.2 93,82.2 118.6,59.8 143.5,58.8 158.3,55.4 178.2,58.7 191,50.8 204.7,28.5 
				228.9,12.2 265.3,6.9 285.7,9.8 309.1,26.5 322.2,50.8 329.1,59.8 354.5,57.2 386.7,58.7 408.7,71.4 426.1,95.9 435.9,123.4 
				435.4,148 430.8,163.5 442.9,172 455.2,180.6 464.6,197.6 479.7,217.4 479.2,236.5 477,265.1 464.2,293.6 447.1,306.8 
				421.3,320.7 399.7,328.6 382.2,349.1 346.9,362.5 325.8,359.5 309.1,353.4 298.9,353.6 281.8,367.6 285.6,381.4 289,396.3 
				289,413.1 292.9,429.1 294.7,444.8 301.6,458.9 307,475.8 			"/>
		</defs>
		<clipPath id="SVGID_2_">
			<use xlink:href="#SVGID_1_"  style="overflow:visible;"/>
		</clipPath>
		<g class="st5">
			<path class="st6" d="M140.5-16c-20-20.3-39.8-40.4-59.6-60.4c-0.9-1-2.2-1.7-2.7-2.9c-0.7-1.4-0.9-3-1.3-4.5
				c1.4,0.5,3.2,0.5,4.2,1.5c11.6,11.2,23,22.6,34.5,33.9c20.7,20.4,41.5,40.8,62.1,61.2c1.6,1.6,2.5,4.7,2.5,7
				c0.2,42.4,0.1,84.8,0.3,127.2c0,2.3,1.2,5.2,2.8,6.8c22.9,22.9,46.1,45.5,69.2,68.3c0.3,0.3,0.8,0.4,1.8,1c0-4.8,0-9.2,0-13.6
				c0-25.4-0.1-50.7,0.2-76.1c0-2.4,1.8-5.3,3.6-7.1c16.2-16.2,32.6-32.3,49-48.2c2.6-2.5,3.6-5.1,3.6-8.6
				c-0.2-21.2,0-42.4-0.3-63.6c0-2.5-1.3-5.5-3-7.3c-12.7-13.1-25.7-26-39.9-40.4c-3.3,3.9-6.1,7.6-9.2,10.8
				c-4.6,4.9-4.8,4.8-9.4,0.2c-21.3-21-42.5-42.1-63.8-63c-2.4-2.3-4.8-4.6-7.2-7c-2.5-2.5-4.9-4.4-8.9-4.7c-5.4-0.4-8.5-5.9-7.2-11
				c1.3-4.9,6.3-7.8,11.2-6.4c4.9,1.4,7.7,6.4,6.2,11.3c-0.4,1.2-1,2.4-1.3,3.1c25.1,25.4,50,50.4,75,75.5
				c3.7-3.8,7.2-7.5,11.4-11.8c-6.3-6.1-12.7-13.2-20-19c-9.5-7.5-12.5-16.3-11.8-28.3c1.1-18.7,0.4-37.4,0.1-56.2
				c0-2.5-1.2-5.6-2.9-7.3c-25.4-25.4-50.9-50.6-76.6-75.7c-1.2-1.2-3.7-1.7-5.4-1.5c-5.7,0.8-10.4-2.2-10.9-7.5
				c-0.5-5.1,3-9.1,8-9.4c5.5-0.3,9.2,3.7,9.4,9.2c0.1,2.1,1,4.8,2.5,6.2c25.4,25.4,51,50.5,76.6,75.7c2.7,2.6,3.9,5.3,3.9,9
				c-0.2,22.6-0.2,45,0.1,67.6c0,2.5,1.3,5.6,3,7.3c22.5,22.4,45.1,44.6,67.7,66.9c0.6,0.5,1.2,1,2.6,2.4c0-12.1,0.1-23.4-0.1-34.6
				c0-1.4-1.6-2.9-2.7-4c-15.9-15.8-31.9-31.5-48-47.2c-2.6-2.6-3.5-5.1-3.5-8.7c0.1-38.5,0-76.8-0.1-115.3c0-2.1,0-4.3,0-6.4
				c-35-2.6-54.8-31.7-52.1-58.9c2.7-26.8,25.1-47.5,52.3-48.2c27.1-0.7,50.9,18.6,54.9,44.6c2.4,15.6-1.4,29.5-11.2,42
				c-8.1,10.1-15,13.8-39.2,20.6c0,2.2,0,4.5,0,6.8c0,37.8-0.1,75.6-0.2,113.3c0,3.4,1,5.9,3.4,8.3c16,15.5,31.8,31.1,47.5,46.9
				c1.8,1.9,3.2,5.1,3.2,7.7c0.3,18.6,0.2,37.1,0.2,55.7c0,1.6,0,3.2,0,5.8c1.6-1.4,2.6-2.2,3.5-3c8.7-8.5,17.2-17.1,26-25.4
				c3.1-3,4.6-6,4.4-10.3c-0.3-9.6-0.3-19.2,0-28.8c0.1-2.2,1.2-4.9,2.8-6.4c33.7-33.5,67.6-66.8,101.4-100.2
				c1.3-1.3,1.9-3.9,1.9-5.8c-0.2-5.2,3.3-9.6,8.4-9.9c5-0.3,9.3,4.1,9,9.1c-0.3,5.2-4.7,9-9.9,7.9c-3.3-0.8-4.9,0.6-6.9,2.5
				c-33.1,32.7-66.2,65.4-99.1,98.2c-1.7,1.7-3,4.8-3,7.3c-0.4,9.9,0,19.9-0.3,29.8c-0.1,2.5-1.4,5.5-3.1,7.3
				c-10.3,10.5-20.8,21-31.5,31.2c-2.7,2.6-3.5,5.2-3.5,8.7c0.2,12.4,0.2,24.9,0,37.3c0,2.2-1.2,4.9-2.7,6.4
				c-16.4,16.5-33,32.8-49.6,49.1c-2.7,2.7-3.7,5.4-3.7,9.1c0,165,0,330.1,0.1,495.1c0,5.4-1.2,9.3-5.3,13c-6,5.3-11.5,11-17,16.8
				c-1.3,1.4-2.4,3.6-2.5,5.5c-0.2,8-0.2,15.9,0.1,23.9c0.1,2,1.3,4.3,2.8,5.7c4.1,4,4.8,9.2,1.1,13.1c-3.7,3.9-9.7,4-13.3,0.1
				c-3.8-4-3-9.6,1.3-13.6c1.7-1.6,3.2-4.2,3.3-6.4c0.4-7.8,0-15.6,0.4-23.4c0.1-2.5,1.3-5.5,3-7.3c5.8-6.2,11.8-12.1,18.1-17.9
				c2.7-2.5,3.6-5.1,3.5-8.6c-0.2-121.1-0.2-242.3-0.3-363.4c0-11.6,0.3-23.2,0-34.8c-0.1-2.5-1.3-5.5-3.1-7.3
				c-24.1-24.1-48.4-47.9-72.5-72c-1.5-1.5-2.6-4.3-2.6-6.5c-0.2-42.4-0.2-84.8-0.1-127.2c0-3.4-1-5.9-3.4-8.3
				C164.9,6.2,157.4-1.6,149.5-9c-1.7-1.6-4.5-2.7-6.9-2.7c-9.7-0.3-19.3,0.1-29-0.3c-2.5-0.1-5.5-1.3-7.3-3.1
				C64.6-55.4,23.4-96.2-18-136.8c-2.8-2.8-5.1-5.5-10.2-4.4c-4.5,1-8.9-4.1-8.9-8.7c0-5.1,4.2-9.1,9.3-9s9.7,4.3,8.8,9.3
				c-0.7,4,1,6.2,3.4,8.5c41.4,41.1,82.9,82,124.4,123c1.1,1.1,2.8,2.1,4.2,2.2C122.3-15.9,131.5-16,140.5-16z M307-274.8
				c0-26.8-21.8-48.6-48.9-48.7c-27.3-0.1-49.3,21.6-49.4,48.7c-0.1,26.4,21.9,48.3,48.7,48.4C285-226.3,307-247.8,307-274.8z
				 M151.4-240.7c-2.7-2-4.4-4.3-5.7-4.1c-1.7,0.2-3.1,2.5-4.7,3.9c1.3,1.5,2.6,4.1,4,4.1C146.8-236.9,148.5-238.8,151.4-240.7z
				 M469.9-157.8c-3-2-4.7-4.1-6.3-4c-1.4,0-2.8,2.5-4.2,3.8c1.5,1.4,2.8,3.7,4.5,4.1C465.2-153.7,467-155.8,469.9-157.8z"/>
			<path class="st6" d="M470.9,143.8c5.7-3.6,8.5-8.1,7.9-14.9c-0.6-6.8,0.1-13.6-0.2-20.4c-0.2-4,1.2-6.8,4-9.5
				c12.6-12.3,25-24.8,37.6-37.2c2.1-2.1,3.4-3.9,2.7-7.3c-1.1-5.5,2.9-9.7,8.4-10c5.3-0.2,9.5,3.5,9.7,8.6s-4.1,9.5-9.7,8.9
				c-3.7-0.4-5.9,1.1-8.2,3.4c-9.3,9.4-18.6,18.9-28.5,28.9c3.2,3,6.5,6.2,10,9.1c0.9,0.8,2.4,1,3.6,1.1c1.6,0.2,3.4-0.3,5,0.1
				c13.6,2.7,22.9-3.4,31.8-13.1c15-16.2,31.1-31.4,46.8-46.9c2.2-2.2,3.4-4.3,2.7-7.8c-1.1-5.2,2.7-9.5,7.9-10.1
				c4.8-0.5,9.1,2.5,9.9,7.1c0.9,5.2-2.1,10.5-7.3,10.4c-6.3-0.1-9.7,3.6-13.4,7.3c-14.8,14.5-30.3,28.5-44.2,43.9
				c-9.7,10.8-20.1,15.7-34.7,14.1c-6.3-0.7-11.6-1.5-15.5-6.8c-1.6-2.1-3.6-3.9-5.6-6c-5.2,4-9.7,7.6-8.8,14.9
				c0.7,5.7-0.3,11.6,0.2,17.4c0.6,6.7-1.6,11.3-6.5,16c-18.1,17.3-35.9,35.1-53.6,52.8c-2.6,2.6-5.2,3.5-8.8,3.5
				c-15.8-0.2-31.7,0-47.5-0.1c-4.1,0-7.1,1-10.1,4c-22.2,22.2-44.7,44.1-66.8,66.3c-1.9,1.9-3.1,5.5-3.1,8.3
				c-0.2,88.7-0.3,177.3-0.4,265.9c0,29-0.1,58,0.1,87c0,2.5,1.1,6,3,7.3c10.9,7.8,14.5,18.1,12.6,30.9c-0.4,2.6,0,5.3,0,8
				c0,3.8,0,7.1,3.8,9.8c4.1,3,3.3,9.4-0.5,12.7c-3.7,3.2-10,2.7-13.1-1c-3.3-3.9-3-10.1,1.4-12.7c3.5-2.1,3.7-4.7,3.7-7.9
				c0-1.8-0.1-3.7,0.1-5.5c2-13.5-0.8-25-12.9-33.1c-1.5-1-2.4-4-2.4-6c-0.2-119.6-0.2-239.3-0.2-358.9c0-2.2,1.1-4.9,2.7-6.5
				c23.8-23.7,47.7-47.2,71.7-70.7c1.5-1.5,4.3-2.4,6.6-2.4c17-0.2,34,0,51-0.2c2.1,0,4.6-1,6.1-2.4c11.2-10.7,22.2-21.5,33-32.5
				c1.7-1.8,2.9-4.8,2.9-7.3c0.2-31.1,0.1-62.3,0.3-93.4c0-2.6,1.5-5.7,3.3-7.7c6.8-7.3,14-14.2,21.1-21.2c2.2-2.1,3.2-4.1,1.9-7.4
				c-1.8-4.9,1.3-9.8,6.3-11c5.3-1.2,10.4,2,11.3,7.1c0.9,5-2.5,9.3-7.6,10.5c-2.8,0.7-5.9,1.9-8,3.9c-7.4,6.7-14.5,13.7-21.5,20.9
				c-1.3,1.4-2.5,3.7-2.5,5.5c-0.1,30-0.1,59.9-0.1,90c0,0.5,0.1,1,0.2,1.9c3.5-2.1,5.4-4.4,5.3-8.5c-0.2-24.2,0-48.4-0.1-72.6
				c0-3.7,0.9-6.5,3.7-9.1c17.3-16.8,34.3-33.8,51.4-50.8c2-2,3.1-3.6,2-6.9c-1.7-5.3,1.9-10.2,7.2-10.9c5.5-0.8,10.1,2.7,10.7,8
				c0.6,5.1-3.6,9.2-9,9.8c-2.4,0.3-5.2,1.1-6.9,2.8c-17.6,17-34.9,34.1-52.3,51.4c-1.3,1.3-2.3,3.4-2.3,5.1
				c-0.1,23.6-0.1,47,0,70.6C470.4,142.8,470.6,143.1,470.9,143.8z"/>
			<path class="st6" d="M24.1,97.2c-0.6,0.5-1.4,0.9-1.8,1.5c-6.5,9.6-15.7,11.1-26.8,11c-9.4-0.1-16-2.6-22.5-9.4
				c-17.2-17.8-35.1-34.9-52.9-52.1c-1.9-1.9-4.9-3-7.6-3.6c-5.1-1-8.9-5.1-8.3-10c0.7-5.2,5.5-8.7,10.8-7.9
				c4.9,0.8,8.8,5.8,7.1,10.6c-1.4,4.1,0.2,6.1,2.6,8.5c19.2,18.9,38.2,37.9,57.4,56.8c1.1,1.1,3.1,1.8,4.7,2c3,0.3,6-0.3,9,0.2
				c10.6,1.6,18.9-1.5,24.8-12.1c-1.9-1.7-4.5-3.9-7-6.3C6,78.9-1.6,71.2-9.5,63.9c-1.5-1.4-3.9-2.4-6-2.7c-5.7-1-9.5-5.8-8.3-10.8
				c1.2-5.2,6.4-8.4,11.4-6.9c5.4,1.6,8.4,7,5.8,12.1c-1.5,3-0.2,4.2,1.5,5.9c13,12.9,26,25.6,38.8,38.7c1.7,1.8,2.9,4.8,3.1,7.3
				c0.4,7.3,0.6,14.6,0,21.9c-0.6,6.7,2.1,11,7.8,14.7c0.2-1.1,0.4-1.9,0.4-2.8c0-22.6,0.1-45-0.1-67.6c0-2.6-1.4-5.8-3.2-7.7
				C24.7,48.8,7.5,31.9-9.7,15.1c-1.3-1.3-3.2-2.4-5-2.6c-4.5-0.5-7.6-2.4-8.6-6.9c-0.9-3.8,0.4-7,3.7-9c3.5-2.2,7.1-2,10.2,0.6
				C-5.9,0-5.3,3.8-7.2,7.9C-7.4,8.5-7.7,9.1-8,9.6c8.8,8.9,17.5,17.8,26.2,26.6c9.3,9.2,18.8,18.4,27.9,27.8
				c1.8,1.9,3.1,5.1,3.2,7.8c0.3,24.4,0.3,48.7,0.1,73.1c0,4.2,1.8,6.7,5.6,9.3c0-7.5,0-14.2,0-20.9c0-23.6,0.1-47-0.1-70.6
				c0-2.3-1.3-5.1-2.9-6.8c-5.6-6-11.4-11.5-17.3-17.2c-3.5-3.4-6.7-7-12.3-7.9c-4.7-0.7-6.9-6.7-5.2-11.2c1.7-4.8,6.9-7.1,11.9-5.3
				c4.5,1.6,7.4,7.1,5.1,11.3c-2,3.8-0.6,5.7,1.8,8c6.5,6.4,12.8,13,19.5,19.2c2.9,2.8,3.9,5.6,3.9,9.5c-0.1,30.8-0.1,61.6,0.1,92.5
				c0,2.4,1.1,5.3,2.7,6.9c10.8,11,21.8,21.9,33,32.5c1.7,1.6,4.6,2.7,6.9,2.7c16.5,0.2,33,0.2,49.5,0.1c3.6,0,6.2,1.2,8.8,3.7
				c23.1,22.9,46.3,45.7,69.6,68.5c2.6,2.5,3.7,5.1,3.7,8.6c-0.2,119.1-0.2,238.2-0.5,357.4c0,2.3-1.4,5-2.8,6.9
				c-1.9,2.7-4.5,4.9-6.9,7.2c-3,2.9-5.4,5.5-4.5,10.4c0.9,4.9-4.1,9-9.2,8.8c-4.9-0.2-9-4.3-8.9-8.9c0-4.9,4.5-9.7,9.4-8.7
				c4.2,0.8,6-1.5,8.6-3.4c8.1-5.9,10.4-13.3,10.3-23.3c-0.4-114.6-0.4-229.2-0.4-344c0-3.8-1-6.5-3.7-9.1
				c-22.8-22.4-45.4-44.8-68.1-67.2c-1.3-1.3-3.7-2.2-5.6-2.3c-17.2-0.2-34.3,0-51.5-0.2c-2.3,0-5.2-1.2-6.9-2.8
				c-19-18.8-38-37.7-57.1-56.4c-2.6-2.5-3.7-5.1-3.5-8.7c0.3-6.5-0.5-13,0.2-19.4C33.6,106.4,30.4,101.2,24.1,97.2z M-9,3.6
				c-2.5-1.9-4.3-4.2-5.6-3.9c-1.7,0.3-3,2.7-4.5,4.1c1.5,1.4,3,3.7,4.6,3.9C-13.1,7.9-11.4,5.6-9,3.6z"/>
			<path class="st6" d="M119.3-79.8c13.4,13.6,26.5,27,39.7,40.3c12,12,24.2,23.7,36.1,35.8c1.6,1.6,2.6,4.6,2.6,7
				c0.2,23.2,0.2,46.3,0.3,69.6c0,2.9,0.4,5.2,3.2,7.1c3.8,2.6,4.5,7.9,2.1,11.5c-2.5,4-6.3,5.3-10.8,4c-5.8-1.6-8.9-5.3-7.7-10.2
				c0.5-2.2,3.4-3.9,5-5.9c1.3-1.7,3.1-3.6,3.2-5.4c0.3-23.5,0.4-47,0.3-70.5c0-1.8-1.3-4.1-2.7-5.5c-24.6-24.4-49.2-48.6-73.8-72.8
				c-1.1-1-2.7-1.9-4.2-2c-4.5-0.4-7.6-2.4-8.6-6.9c-0.9-4,0.6-7.3,4.2-9.2c3.6-2.1,7.2-1.6,10.2,1.2c3.5,3.3,3.7,7.2,1.3,11.2
				C119.4-80.1,119.3-79.7,119.3-79.8z M118.6-85.7c-3-1.8-4.8-3.8-6.5-3.7c-1.4,0.1-2.7,2.6-4,4.1c1.6,1.4,3,3.6,4.7,3.8
				C114.2-81.4,115.9-83.7,118.6-85.7z"/>
			<path class="st6" d="M411.7,58.7c4.7-0.1,8.9,3.4,9.5,7.9c0.6,4.6-2.8,9.6-7.7,9.9c-4.4,0.2-7,2.5-9.7,5.2
				c-18.3,18.1-36.7,36.1-54.9,54.3c-1.5,1.5-2.6,4.3-2.6,6.5c-0.3,11.2-0.2,22.6,0,33.8c0.1,3.6-0.9,6.2-3.5,8.7
				c-21.5,21.1-42.8,42.3-64.2,63.3c-0.8,0.8-1.6,1.9-2.6,2.3c-0.9,0.4-2.4,0.4-3.1-0.2c-0.5-0.5-0.6-2.2-0.1-2.9
				c1-1.5,2.4-2.8,3.7-4.1c20.5-20.1,40.9-40.3,61.5-60.3c2.6-2.5,3.8-5.1,3.7-8.6c-0.2-11.1,0-22.2-0.2-33.3
				c-0.1-3.5,1.1-5.9,3.6-8.3c18.5-18.1,36.9-36.4,55.3-54.6c2.5-2.5,4.3-4.6,2.6-8.8C400.8,64.2,405.8,58.8,411.7,58.7z"/>
			<path class="st6" d="M0.6,152.5c3,0,6-0.1,9,0c4,0.1,7.4,0.2,10.3-4c2.7-3.9,9.1-3.2,12.3,0.5c3.1,3.5,2.8,8.9-0.7,12.1
				c-3.6,3.3-9.7,3.2-12.4-0.9c-2-3.1-4.3-3.4-7.5-3.4c-7.8,0.2-15.7-0.1-23.5,0.2c-3.8,0.1-6.5-1-9.2-3.7
				c-26.5-26.3-53.2-52.5-79.8-78.6c-3.1-3.1-6-6.2-11.2-6.5c-4.8-0.2-8-5.9-6.9-10.3c1.2-5.2,6.4-8.3,11.5-6.9
				c4.8,1.4,8.5,7,6.3,11.2c-2,3.8-0.1,5.5,2,7.6c11.5,11.5,23.1,23,34.6,34.4c14.8,14.6,29.7,29,44.3,43.7c3.4,3.4,6.7,5,11.3,4.5
				C-5.7,152.3-2.6,152.5,0.6,152.5z M25.8,148.7c-2.1,3-4.2,4.7-4.2,6.4c0,1.4,2.5,3.8,4,3.8c1.4,0,3.9-2.3,4-3.7
				C29.7,153.5,27.7,151.8,25.8,148.7z"/>
			<path class="st6" d="M240,152.6c-6.4,0-9.3-2.2-10.6-6.3c-1.3-4-0.1-7.7,3.4-9.5c3.1-1.7,3.4-3.9,3.4-6.8
				c-0.1-10.2,0.1-20.6-0.1-30.8c-0.1-3.7,0.9-6.5,3.7-9.1c16-15.5,31.8-31.1,47.5-46.9c1.5-1.6,2.6-4.2,2.7-6.4
				c0.4-5.3,0.1-10.6,0-15.9c-0.1-4.2,0.4-8.1-4.3-11.1c-4.1-2.7-3.3-9.3,0.5-12.7c3.6-3.2,9.2-3.1,12.7,0.4
				c3.6,3.6,3.8,9.7-0.3,12.7c-3.5,2.5-3.7,5.5-3.7,8.8c0,3.8-0.6,7.7,0,11.4c1.3,8.7-2.4,14.8-8.7,20.7
				c-14.2,13.2-27.8,27.2-41.7,40.8c-2.6,2.5-3.7,5-3.6,8.6c0.3,10.1,0.1,20.2,0.1,30.3c0,2.7,0.2,4.9,2.8,6.8
				c3.1,2.2,4.1,6.1,2.2,9.3C244.3,149.7,241.3,151.5,240,152.6z M237.7,138c-1.8,2.8-3.7,4.5-3.5,6c0.2,1.5,2.5,2.7,3.9,4
				c1.3-1.4,3.5-2.8,3.7-4.3C241.8,142.3,239.7,140.7,237.7,138z"/>
			<path class="st6" d="M147.9,42.8c6,0.5,9,2.4,10.5,6.5c1.5,4.2-0.2,7.3-3,10.2c-1.5,1.6-3,4-3,6c-0.2,30.4-0.2,60.9-0.2,91.4
				c0,1.6,0.8,3.6,1.9,4.8c7,7.1,14.1,14,21.5,20.8c1.5,1.4,4.3,2.1,6.4,2c5.6-0.2,9.9,2.9,11,8.6c0.6,3-3.6,9.8-6.6,10.7
				c-5.8,1.7-13.4-4.5-12.4-10.8c0.5-3.6-0.7-5.6-2.9-7.7c-6.7-6.7-13.3-13.5-20.1-20c-2.5-2.4-3.4-4.9-3.4-8.3
				c0.1-29.4,0-59,0-88.4c0-3.8,0.1-7.3-4.1-9.8c-3.4-2.1-4.1-6.6-2.2-9.8C142.9,46.1,146.2,44.2,147.9,42.8z"/>
			<path class="st6" d="M272,163.1c0-7-0.2-13.9,0.1-20.9c0.1-2.1,1-4.6,2.4-6.1c43-42.5,86-84.9,129.1-127.3
				c0.6-0.6,1.1-1.4,1.8-1.7c0.9-0.3,2-0.1,3.1-0.2c0,1.1,0.4,2.3-0.1,3.1c-0.6,1.1-1.7,2-2.7,2.9c-42,41.4-84,82.8-125.8,124.3
				c-1.7,1.7-3,4.8-3,7.3c-0.3,12.2-0.1,24.6-0.1,36.8c0,1.2,0.3,2.5-0.1,3.5c-0.6,1.6-1.7,3-2.6,4.5c-0.7-1.5-2.1-2.9-2.1-4.4
				C271.8,177.7,271.9,170.3,272,163.1L272,163.1z"/>
			<path class="st6" d="M403.7,223.6c-9.3,0-18.6,0.1-27.9-0.1c-1.5,0-3-1.6-4.5-2.4c1.5-0.7,3-2,4.5-2c17.1-0.1,34.3-0.1,51.4,0.1
				c3.4,0,5.9-0.8,8.4-3.3c13.1-13.1,26.3-26.2,39.7-39.1c1.9-1.8,5.1-3.1,7.7-3.2c11.1-0.4,22.3-0.2,33.4-0.5
				c2.1-0.1,4.6-1.3,6.1-2.8c4-4,10-4.7,13.8-1.1c3.8,3.6,3.8,9.8-0.1,13.2c-4.1,3.7-9.8,3-13.7-1.3c-1.4-1.5-3.7-2.8-5.6-2.8
				c-11.1-0.3-22.3-0.4-33.4-0.2c-2,0-4.5,1.2-5.9,2.6c-13.3,12.9-26.6,26-39.7,39.2c-2.4,2.4-4.7,3.6-8.2,3.4
				c-8.6-0.4-17.3-0.1-25.9-0.1C403.7,223.4,403.7,223.5,403.7,223.6z"/>
			<path class="st6" d="M31.3-71.4c-4.1,6.2,2,8.9,5.6,12.6c19.2,19,38.4,38,57.8,56.9c1.9,1.8,5.1,3,7.7,3.1c8.6,0.4,17.3,0.3,26,0
				c1.9-0.1,4.2-1.3,5.6-2.7c3.8-4.1,9.5-4.8,13.3-1.2s3.6,9.4-0.3,12.7c-4.2,3.5-9.4,2.7-13.1-1.7c-1.2-1.4-3.4-2.5-5.1-2.6
				c-9.3-0.2-18.7-0.3-28,0c-3.5,0.1-5.9-1.1-8.3-3.5C71.9-18,51.3-38.3,30.7-58.5c-2.8-2.8-5.3-5.4-10-5.4c-4.9,0-8.1-5.3-7.4-9.9
				c0.7-4.8,5.2-8.1,10.1-7.6C28.1-81,31.4-77.1,31.3-71.4z M141.3-2.4c-2,2.7-4.3,4.5-4,5.8c0.3,1.7,2.7,3,4.1,4.5
				c1.3-1.4,3.6-2.8,3.7-4.3C145.3,2,143.3,0.3,141.3-2.4z"/>
			<path class="st6" d="M112.4,223.5c-8.7,0-17.3,0.3-26-0.2c-2.8-0.1-6.2-1.4-8.2-3.3c-13.5-12.8-26.6-26-40-38.9
				c-1.8-1.7-4.8-2.9-7.3-3c-10.1-0.3-20.3-0.2-30.5,0.2c-2.1,0.1-4.6,1.4-6.1,2.9c-4,4-10,4.8-13.8,1.1c-3.7-3.5-3.8-9.3-0.2-12.9
				c3.8-3.9,10.3-3.9,13.6,0.7c2,2.7,4.3,3.2,7.2,3.2c10.5,0,21-0.1,31.5,0.3c2.5,0.1,5.5,1.3,7.3,3c13.6,13.1,26.9,26.5,40.5,39.8
				c1.6,1.5,4.3,2.6,6.5,2.6c17.5,0.2,35,0,52.4,0.2c1.6,0,3.2,1.4,4.8,2.2c-1.6,0.7-3.2,1.9-4.8,2
				C130.3,223.5,121.3,223.4,112.4,223.5C112.4,223.4,112.4,223.4,112.4,223.5z"/>
			<path class="st6" d="M388.1,236.7c13.3,0,26.6-0.2,40,0.1c2.5,0.1,5.3,1.5,7.3,3.1c3.6,2.9,6.8,6.4,10.1,9.6
				c2.8,2.8,5.4,5.4,10.2,4.8c4.4-0.5,8.7,4.9,8.5,9.3c-0.1,4.5-4,8.3-8.7,8.5c-4.9,0.3-10.2-3.1-9.4-7.4c1.5-8.2-4.4-11.6-8.3-16.6
				c-4.6-5.9-10.1-7.7-17.6-7.5c-23.3,0.5-46.6,0.1-69.9,0.4c-2.4,0-5.4,1.4-7.2,3.1c-9.7,9.1-19,18.6-28.5,27.8
				c-1,1-2.3,1.9-3.6,2.5c-0.4,0.2-1.9-0.8-1.9-1.1c0.2-1.3,0.5-2.9,1.4-3.8c6.3-6.4,13.2-12.2,18.9-19.1
				c8.7-10.4,18.5-16.4,32.9-14.2C370.6,237.7,379.4,236.7,388.1,236.7L388.1,236.7z"/>
			<path class="st6" d="M127.9,236.8c13.2,0,26.3-0.1,39.5,0.1c2.4,0,5.2,1.2,6.9,2.8c10.3,9.6,20.3,19.6,30.3,29.6
				c1.1,1.1,1.2,3.2,1.8,4.9c-1.7-0.5-3.8-0.6-4.9-1.7c-9.8-9.4-19.3-19.2-29.1-28.6c-1.6-1.5-4.2-2.7-6.4-2.7
				c-25.5-0.2-51-0.2-76.4-0.1c-2.2,0-4.7,1.3-6.5,2.6c-3,2.3-5.5,5.3-8.3,7.9c-3.3,3.1-6,5.7-4.1,11.2c1.6,4.5-2.3,8.6-7.2,9.3
				c-5.1,0.8-10-2.2-10.7-6.6c-0.9-5.6,1.6-10.4,7-10.5c6.3-0.1,9.8-3.8,13-7.8c6.5-8.2,14.2-11.7,24.9-10.5
				C107.5,237.6,117.7,236.8,127.9,236.8L127.9,236.8z"/>
			<path class="st6" d="M518.7-187.3c-0.6,0.4-2.8,1.2-4.2,2.7c-28.1,27.5-56.1,55.1-84.1,82.7c-6.3,6.2-12.4,12.4-18.9,18.5
				c-1.5,1.4-4,1.8-6,2.7c0.9-1.9,1.5-4.1,2.9-5.5c26.1-25.9,52.4-51.8,78.6-77.7c8-8,16.1-15.8,24-24c1.3-1.3,2.3-3.6,2.1-5.3
				c-0.8-6.6,2-11,7.7-11.6c5.5-0.5,10,3.2,10.3,8.5C531.2-190.9,526.8-187.2,518.7-187.3z"/>
			<path class="st6" d="M272-147.7c0-10.1,0.2-20.2-0.1-30.3c-0.1-2.2-1.3-4.6-2.7-6.4c-3.7-4.6-3.4-10.2,1-13.6
				c4.3-3.3,10.2-2.4,13.2,2.1c3.2,4.7,1.9,10.6-3.3,13c-3.1,1.4-3.1,3.4-3.1,5.9c-0.1,19.9-0.2,39.8-0.1,59.5
				c0,1.6,0.7,3.7,1.8,4.9c10.4,10.5,20.9,20.9,31.3,31.3c0.8,0.8,0.9,2.3,1.3,3.5c-1.3-0.1-3.2,0.4-4-0.3
				c-5.2-4.6-10.4-9.3-15.3-14.2c-5.6-5.6-11.3-11.2-16.5-17.3c-1.8-2-3-5.2-3.1-7.9c-0.4-10-0.1-20.2-0.1-30.3
				C272.1-147.7,272.1-147.7,272-147.7z"/>
			<path class="st6" d="M372.1-48.9c5,1.2,8,2.9,9.4,6.8c1.5,4,0.7,7.9-2.9,10.1c-2.9,1.9-3.3,4.2-3.3,7.1c0.1,4.5-0.5,8.9,0,13.4
				c0.6,5.7-1.4,9.5-5.5,13.4c-12.9,12.2-25.4,24.9-38.2,37.3c-1.1,1.1-3.2,1.2-4.9,1.8c0.6-1.6,0.7-3.7,1.8-4.9
				C341.6,23,355,10,368.1-3.1c1.4-1.5,2.3-3.9,2.5-6c0.4-4,0.1-8,0-11.9c0-4.6,0.6-8.9-4.6-12c-3.1-1.9-3.7-6.3-1.5-9.4
				C366.5-45.1,369.6-46.8,372.1-48.9z"/>
		</g>
	</g>
	<path class="st7" d="M294.4,360.2l32.1-50.3c2.5-4,1.8-9.2-1.8-12.3l0,0c-3.8-3.3-9.6-3.1-13.1,0.5L288,321.8
		c-3.1,3.2-8.5,0.5-7.9-3.9l6.9-51.2c0.7-5.5-3.3-10.4-8.9-10.8l-6.5-0.4c-4.9-0.3-9.2,3.1-10.1,7.9l-12.4,70
		c-0.7,3.9-5.7,5.2-8.2,2.1l-38.8-47.5c-2.7-3.3-7.2-4.4-11.2-2.8l-6.8,2.9c-5.4,2.3-7.5,8.7-4.5,13.7l39.9,66.1
		c5.8,9.5,8.2,20.8,6.7,31.9c-5.2,39.7-11.6,77-37.9,107.6h137.2l0,0c-28.1-32.6-35.1-73.2-38.8-115.9
		C285.8,380.5,288.5,369.6,294.4,360.2z"/>
	<path class="st8" d="M326.5,309.9c2.5-4,1.8-9.2-1.8-12.3l0,0c-3.8-3.3-9.6-3.1-13.1,0.5L301,308.7l0,0l-13,13.1
		c-3.1,3.2-8.5,0.5-7.9-3.9l6.9-51.2c0.7-5.4-3.1-10.1-8.4-10.7L259,376.8c-0.3,1.6-0.6,3.2-0.8,4.7l0,0l0,0
		c-0.4,3.3-0.4,6.7-0.1,9.9c3.7,42.7,10.7,83.3,38.8,115.9l0,0h28.6l0,0c-28.1-32.6-35.1-73.2-38.8-115.9c-1-10.9,1.7-22,7.7-31.3
		L326.5,309.9z"/>
	<path class="st9" d="M439.2,161.7c-1.1-0.6-1.7-2-1.2-3.2c3.4-9.1,5.2-18.6,5.2-28.5c0-2.2-0.1-4.4-0.3-6.5c-0.3-4-3.8-7-7.8-6.7
		c-4,0.3-7,3.8-6.7,7.8c0.1,1.8,0.2,3.6,0.2,5.4c0,10.8-2.5,21.2-7.5,30.8c-0.9,1.8-1.1,3.9-0.4,5.8s2.1,3.4,4,4.2
		c28.5,11.9,46.8,39.6,46.8,70.2c0,40.9-32.1,74.3-73.2,76.1c-3.2,0.1-5.9,2.3-6.7,5.3c-5.4,19.6-27.2,33.7-51.9,33.7
		c-10.7,0-21-2.6-29.7-7.5c-1.3-0.7-1.7-2.4-0.9-3.6l22.7-35.5c1.7-2.7,2.6-5.6,2.6-8.5c0.1-4.9-1.9-9.7-5.8-13.1
		c-6.7-5.8-16.8-5.4-23.1,0.9l-12.7,12.7c-1.7,1.8-4.7,0.3-4.4-2.2l4.9-35.7c0.6-4.6-0.7-9.2-3.7-12.8c-2.6-3.2-6.2-5.3-10.2-6
		c-0.6-0.1-1.1-0.2-1.7-0.2l-6.5-0.4c-3.2-0.2-6.3,0.5-9,1.9c-4.5,2.4-7.8,6.7-8.7,11.9l-5.7,32.2l-4.7,26.7
		c-0.4,2.2-3.1,2.9-4.5,1.2l-31.6-38.7c-1.2-1.4-2.5-2.6-4.1-3.6l0,0c-0.2-0.1-0.3-0.2-0.5-0.3c-2.2-1.3-4.6-2-7.1-2.3
		c-0.1,0-0.2,0-0.2,0c-0.4,0-0.7,0-1.1-0.1c-2.2,0-4.5,0.4-6.6,1.3l-6.8,2.9c-4.5,1.9-8,5.7-9.5,10.2c-1.5,4.7-1,9.6,1.6,13.8
		l27.4,45.3c0.8,1.3,0.3,3-1.1,3.7c-8,3.8-17.1,5.8-26.4,5.8c-24.6,0-46.4-14.2-51.9-33.7c-0.8-3-3.5-5.2-6.7-5.3
		c-41-1.9-73.2-35.3-73.2-76.1c0-30.7,18.4-58.3,46.8-70.2c1.9-0.8,3.3-2.3,4-4.2s0.6-4-0.4-5.8c-6.7-13-8.9-27.3-6.6-42.4
		c4.2-26.9,24.9-48.6,51.7-54.1c15.7-3.2,31-1.4,44.6,5.2c1.9,1,4.2,1,6.2,0.1c2-0.9,3.5-2.6,4-4.7c8.1-28.9,34.9-49.1,65.1-49.1
		s57,20.2,65.1,49.1c0.6,2.1,2.1,3.8,4,4.7c2,0.9,4.2,0.8,6.2-0.1c9.3-4.5,19.3-6.8,29.6-6.8c24.9,0,47.7,13.5,59.6,35.4
		c1.9,3.5,6.3,4.9,9.9,3c3.5-1.9,4.9-6.3,3-9.8c-14.4-26.5-42.1-43-72.4-43c-9,0-17.8,1.4-26.1,4.3c-1.3,0.4-2.7-0.2-3.2-1.4
		c-12.7-29.7-42.4-49.6-75.5-49.6c-33.1,0-62.8,20-75.6,49.7c-0.5,1.2-1.9,1.8-3.2,1.4c-6-2-12.1-3.3-18.4-3.9
		c-48.4-4.5-90.7,34.2-90,82.6c0.1,9.4,1.9,18.7,5.2,27.3c0.5,1.2-0.1,2.5-1.2,3.2c-28.8,15.9-46.9,46-46.9,79.3
		c0,46.4,34.8,84.7,80.5,90c0.9,0.1,1.7,0.7,2.1,1.6c9.6,22.7,34.8,38,63.7,38c12.1,0,24-2.8,34.4-8c1.2-0.6,2.6-0.2,3.3,1l2.4,3.9
		c4.9,8.2,7,17.8,5.7,27.2c-1.1,8.1-2.4,17.6-4,26.9c0,0.1,0,0.2-0.1,0.2c-1.7,12.5-3.3,22.5-2.2,30.8c0.3,2.2,3.2,3,4.6,1.2
		c3.2-4,6.4-12.6,6.9-15.4c1.7-9.6,8-33.6,9.1-42c1.6-12.6-1.1-25.5-7.7-36.6L185,294c-0.5-0.8-0.3-1.5-0.2-1.9
		c0.1-0.4,0.5-1.1,1.3-1.4l6.8-2.9c0.9-0.4,2-0.1,2.7,0.7l38.8,47.5c0.1,0.1,0.2,0.2,0.3,0.4c1.4,1.6,3.2,2.8,5.2,3.5
		c2.1,0.7,4.4,0.8,6.7,0.2h0.1l0,0l0,0c2.2-0.6,4.1-1.7,5.6-3.3c0.1-0.1,0.1-0.1,0.2-0.2c0.1-0.1,0.1-0.1,0.2-0.2
		c1.4-1.6,2.4-3.6,2.8-5.9l12.4-70c0.2-1.2,1.3-2,2.4-1.9l6.5,0.4c0.3,0,0.5,0.1,0.7,0.2c0.7,0.3,1.3,0.9,1.4,1.7
		c0,0.2,0.1,0.4,0,0.7l-6.9,51.2c-0.1,0.6-0.1,1.3-0.1,1.9c0.1,4.4,2.6,8.4,6.7,10.3c0.3,0.1,0.6,0.3,0.9,0.4c1.5,0.6,3,0.9,4.5,0.8
		c3.1,0,6.1-1.3,8.3-3.5l23.6-23.8c0.4-0.4,0.9-0.6,1.5-0.7c0,0,0,0,0.1,0l0,0c0.4,0,0.8,0.1,1.2,0.3c0.1,0.1,0.2,0.2,0.4,0.3
		c0.9,0.8,1,2,0.4,3l-32.1,50.3c-6.7,10.5-9.8,23.3-8.8,35.8c3,33.6,7.9,71.5,28.7,104.1c1.1,1.7-0.1,4-2.2,4h-98.3
		c-2,0-3.2-2.1-2.3-3.8c7.4-13.7,14.6-39.3,19-53.6c1.2-3.9,2.5-21.3-1.4-22.4c-3.9-1.2-9.7,18.8-10.9,22.6
		c-5.8,19.4-17.8,46.5-29.3,59.8c-1.9,2.2-2.3,5.2-1.1,7.8c1.2,2.6,3.8,4.2,6.6,4.2h137.2c2.8,0,5.4-1.7,6.6-4.2
		c1.2-2.6,0.8-5.6-1.1-7.8c-28.1-32.5-33.9-74.8-37.1-111.8c-0.8-9.3,1.5-18.9,6.5-26.7l0.2-0.3c11.5,7.2,25.4,11.1,39.9,11.1
		c28.9,0,54.2-15.4,63.7-38c0.4-0.9,1.2-1.5,2.1-1.6c45.7-5.3,80.5-43.6,80.5-90C486.1,207.8,468.1,177.7,439.2,161.7z"/>
</g>
</svg>
