<?xml version="1.0" encoding="UTF-8" standalone="no"?>
<!-- Created with Inkscape (http://www.inkscape.org/) -->

<svg
   xmlns:dc="http://purl.org/dc/elements/1.1/"
   xmlns:cc="http://creativecommons.org/ns#"
   xmlns:rdf="http://www.w3.org/1999/02/22-rdf-syntax-ns#"
   xmlns:svg="http://www.w3.org/2000/svg"
   xmlns="http://www.w3.org/2000/svg"
   xmlns:sodipodi="http://sodipodi.sourceforge.net/DTD/sodipodi-0.dtd"
   xmlns:inkscape="http://www.inkscape.org/namespaces/inkscape"
   width="960"
   height="540"
   viewBox="0 0 254 142.875"
   version="1.1"
   id="svg8"
   inkscape:version="0.92.4 (5da689c313, 2019-01-14)"
   sodipodi:docname="WickedtreeLogo.svg">
  <defs
     id="defs2" />
  <sodipodi:namedview
     id="base"
     pagecolor="#ffffff"
     bordercolor="#666666"
     borderopacity="1.0"
     inkscape:pageopacity="0.0"
     inkscape:pageshadow="2"
     inkscape:zoom="0.7"
     inkscape:cx="512.03102"
     inkscape:cy="336.92924"
     inkscape:document-units="px"
     inkscape:current-layer="layer1"
     showgrid="false"
     units="px"
     showguides="false"
     inkscape:window-width="1600"
     inkscape:window-height="877"
     inkscape:window-x="-8"
     inkscape:window-y="-8"
     inkscape:window-maximized="1" />
  <metadata
     id="metadata5">
    <rdf:RDF>
      <cc:Work
         rdf:about="">
        <dc:format>image/svg+xml</dc:format>
        <dc:type
           rdf:resource="http://purl.org/dc/dcmitype/StillImage" />
        <dc:title></dc:title>
      </cc:Work>
    </rdf:RDF>
  </metadata>
  <g
     inkscape:label="Layer 1"
     inkscape:groupmode="layer"
     id="layer1"
     transform="translate(0,-154.12497)">
    <path
       style="fill:#000000;stroke-width:0.37923557"
       d="m 109.49675,297.32192 c 0.27089,-0.62205 1.34582,-4.22559 3.24786,-10.88794 1.77341,-6.21183 3.34122,-16.9713 3.35198,-23.004 0.005,-2.45752 -0.79523,-4.14179 -3.25801,-6.86235 -1.4981,-1.65489 -1.56915,-3.49501 -0.1474,-3.81644 0.91338,-0.20651 0.97012,-0.34582 0.77231,-1.89651 -0.78843,-6.18053 -3.66316,-13.1763 -7.49133,-18.23047 -2.69652,-3.56009 -6.679344,-7.44673 -7.382101,-7.20381 -0.411357,0.1422 -1.530031,-0.60155 -3.345032,-2.22396 -2.508695,-2.24249 -2.857312,-2.43452 -4.355333,-2.39914 -1.462568,0.0346 -1.746952,-0.10896 -2.793131,-1.40994 -0.64063,-0.79662 -1.164775,-1.75204 -1.164775,-2.12316 0,-0.79369 1.737551,-1.49975 2.884096,-1.17196 0.66219,0.18932 0.71923,0.12243 0.375873,-0.44075 -0.996628,-1.63464 -5.850393,-5.90674 -8.639229,-7.60387 -4.422132,-2.6911 -5.470138,-2.87054 -14.019636,-2.40028 -5.140463,0.28274 -6.573481,0.0122 -6.573481,-1.24365 0,-0.95904 2.608273,-1.45118 7.392132,-1.39478 4.374343,0.0516 7.983262,-0.67736 9.161856,-1.85047 0.630947,-0.62802 0.613066,-0.70488 -0.310996,-1.3371 -0.539234,-0.36893 -1.535457,-0.94559 -2.213825,-1.28148 -1.905529,-0.94354 -3.432118,-3.50388 -5.400163,-9.05703 -1.851963,-5.22559 -2.901962,-6.96295 -5.009393,-8.28862 -0.664595,-0.41804 -1.211454,-0.88665 -1.215261,-1.04133 -0.01511,-0.61065 1.316702,-0.68359 2.813133,-0.15411 0.866405,0.30658 1.575295,0.51292 1.575295,0.45854 0,-0.0544 -1.034218,-0.75234 -2.298245,-1.55104 -1.264026,-0.79868 -2.927258,-2.03521 -3.696073,-2.7478 -0.7688,-0.71259 -1.728353,-1.29734 -2.132349,-1.29945 -0.403979,-0.003 -1.899942,0.48207 -3.324367,1.07596 -3.382148,1.41013 -4.387475,1.41199 -4.729612,0.008 -0.326309,-1.33827 -0.01752,-1.80845 1.187489,-1.80845 2.594198,0 3.36031,-1.35764 2.368664,-4.19754 -0.726498,-2.0806 -2.084791,-3.57478 -4.496149,-4.94598 -0.849113,-0.48284 -2.378981,-1.75844 -3.399697,-2.83467 -1.559784,-1.6446 -1.855859,-2.19464 -1.855859,-3.44769 0,-1.02656 0.171468,-1.4909 0.55056,-1.4909 1.117203,0 3.346627,1.07064 3.946405,1.89521 0.339946,0.46735 2.907899,3.0261 5.706549,5.68609 2.798634,2.65999 5.517878,5.44656 6.042765,6.1924 0.977902,1.38956 4.614806,4.0701 14.495534,10.68379 3.090738,2.06878 5.619515,3.89094 5.619515,4.04923 0,0.15829 0.35461,0.2878 0.78804,0.2878 0.563155,0 1.029809,0.50626 1.635249,1.77401 1.122657,2.35077 2.025939,3.06659 3.456435,2.73906 0.612055,-0.14013 2.011878,-0.28158 3.110701,-0.31432 l 1.997868,-0.0596 -0.13169,-2.95708 c -0.123077,-2.76355 -0.0655,-3.0168 0.880887,-3.86927 0.556937,-0.5017 1.303071,-0.91217 1.658051,-0.91217 0.977564,0 4.097056,-2.06065 4.393613,-2.90232 0.601737,-1.70781 -2.165728,-3.71318 -10.073492,-7.2995 -3.682542,-1.67009 -4.589041,-2.29314 -9.811221,-6.74332 -3.877328,-3.30417 -5.109612,-4.5667 -5.018153,-5.1414 0.133352,-0.83793 1.06536,-1.12985 2.541659,-0.79608 0.527288,0.11917 2.598232,1.4698 4.602091,3.00131 7.916053,6.05007 9.212607,6.88717 12.444496,8.03469 1.143234,0.40592 2.792235,1.21077 3.664432,1.78855 0.872194,0.57779 1.678298,0.96721 1.791328,0.86538 0.28293,-0.25483 0.12007,-2.68653 -0.403037,-6.01775 -0.520427,-3.31433 -0.0254,-5.70029 1.477644,-7.12288 0.72316,-0.68443 1.03544,-1.48733 1.22974,-3.16187 0.1623,-1.39883 0.42662,-2.19173 0.70154,-2.10446 0.67905,0.21557 0.30755,4.23211 -0.4846,5.239 -2.384007,3.03027 -2.258127,2.06165 -1.42566,10.9708 0.20718,2.2173 0.14452,2.89574 -0.29054,3.14389 -0.897777,0.51215 -1.327004,0.39305 -3.186252,-0.88407 -0.970057,-0.66633 -2.393088,-1.40084 -3.162262,-1.63224 -2.324688,-0.69934 -6.418796,-3.09807 -9.589772,-5.61861 -4.708877,-3.74298 -7.5477,-5.63546 -8.265758,-5.51029 -0.448167,0.0781 1.067898,1.56621 4.701178,4.61445 5.074526,4.2574 5.691325,4.65284 11.479441,7.35947 4.903023,2.29275 6.350014,3.14601 7.292208,4.3001 1.310397,1.6051 1.432307,2.2461 0.625187,3.28748 -0.519457,0.67027 -0.461027,0.71104 1.04479,0.72896 1.29636,0.0154 1.79223,0.23508 2.64803,1.17302 0.72607,0.79576 1.39677,1.15304 2.16037,1.15079 2.59864,-0.008 2.3764,3.21903 -0.50474,7.32839 -1.80023,2.56765 -2.80032,4.85857 -2.80032,6.41469 0,1.41804 -0.66202,2.4506 -1.57121,2.4506 -0.41861,0 -1.829737,-1.10322 -3.226868,-2.52276 -1.365621,-1.38753 -3.017432,-2.80476 -3.670699,-3.14941 -1.026144,-0.54138 -1.159424,-0.78588 -0.979584,-1.79701 0.193437,-1.08766 0.15041,-1.14258 -0.608047,-0.77691 -0.448927,0.21642 -1.402481,0.29442 -2.119008,0.17334 -2.369504,-0.40043 -2.637444,0.0438 -0.945638,1.56773 1.128918,1.01691 1.533435,1.68028 1.533435,2.51473 0,1.46189 -0.737787,1.70646 -3.54684,1.17571 -1.46277,-0.27637 -2.348595,-0.29729 -2.610191,-0.0616 -0.604581,0.5446 -2.472989,0.42483 -3.044195,-0.19515 -0.692822,-0.75197 -0.95386,-3.72463 -0.433533,-4.93711 0.307853,-0.71741 0.70241,-0.98982 1.433591,-0.98982 0.554848,0 1.00883,-0.0521 1.00883,-0.11563 0,-0.58589 -1.635307,-2.90558 -2.283201,-3.23873 -0.454421,-0.23367 -2.270442,-1.47767 -4.035612,-2.76441 -1.765173,-1.28677 -5.834902,-4.09637 -9.043865,-6.24358 -3.208957,-2.14721 -6.414411,-4.55309 -7.123256,-5.34641 -7.429057,-8.31442 -15.873273,-15.78867 -15.873273,-14.04994 0,0.74634 4.288331,4.91036 6.178835,5.99971 2.691335,1.55083 4.282274,3.85093 4.530793,6.55042 0.22265,2.4185 -0.532422,3.59968 -2.515321,3.93477 -0.770837,0.13032 -1.401529,0.38079 -1.401529,0.55672 0,0.54495 0.961939,0.35787 3.221719,-0.62655 3.205816,-1.39656 4.799429,-1.32376 6.655756,0.30398 0.830734,0.72843 3.038789,2.29471 4.906805,3.48061 1.868001,1.18592 4.089564,2.61167 4.936788,3.16835 2.163503,1.42156 5.582727,4.81357 6.382424,6.33162 0.80971,1.53705 1.275366,5.08795 0.902182,6.8798 -0.247145,1.18667 -0.386294,1.29817 -1.620118,1.29817 -2.670614,0 -4.363479,-2.08317 -6.655469,-8.18996 -1.211552,-3.22808 -3.356178,-6.85842 -3.810069,-6.44956 -0.122629,0.11046 0.134558,0.65555 0.5714,1.21134 0.436887,0.5558 1.282088,2.38728 1.878226,4.06995 0.596153,1.68268 1.427316,4.02285 1.847061,5.20037 1.059559,2.97254 2.487531,4.67052 5.003412,5.94953 1.938075,0.98526 2.15183,1.21466 2.15183,2.30922 0,0.88174 -0.260207,1.36887 -0.948061,1.77485 -1.786316,1.05433 -5.618715,1.68266 -10.297711,1.68833 -5.006356,0.005 -6.9367,0.47333 -3.641888,0.88151 1.153253,0.14287 3.04045,0.0626 4.465961,-0.19006 5.368554,-0.95142 9.610177,-0.10393 14.56955,2.91104 1.842027,1.11983 8.019949,6.92496 8.924056,8.38556 0.778754,1.25807 0.642034,1.8015 -0.38542,1.53185 -3.543408,-0.92998 -4.170778,-0.63245 -2.669907,1.26621 0.655052,0.82867 1.131336,1.04586 2.29756,1.04774 1.715721,0.003 2.953952,0.68338 5.004863,2.75098 0.985444,0.99347 1.720868,1.43722 2.196305,1.32522 0.496617,-0.11699 1.499674,0.58197 3.286211,2.28988 6.24268,5.96793 10.24778,12.90513 12.18169,21.09987 0.62997,2.6694 0.77199,6.00532 0.2557,6.00532 -0.17776,0 -0.64374,0.21113 -1.03552,0.46918 -0.6665,0.439 -0.62412,0.57323 0.65898,2.08741 0.75421,0.89003 1.86235,2.37301 2.46251,3.29552 l 1.09122,1.67729 -0.42567,6.22341 c -0.5596,8.18191 -1.32718,12.74144 -3.50163,20.80062 -2.28568,8.47148 -2.86127,10.0781 -3.61054,10.0781 -0.40586,0 -0.50856,-0.20105 -0.32183,-0.62988 z m -7.78072,-100.31744 c 0,-1.659 1.34916,-4.82668 2.99283,-7.02684 2.48583,-3.32743 2.89417,-5.9442 0.92758,-5.9442 -0.67027,0 -1.579,-0.4399 -2.41647,-1.16978 -1.69792,-1.4798 -3.15573,-1.54193 -4.223134,-0.17996 -1.283471,1.63764 -3.130792,5.18194 -3.813366,7.31643 l -0.641957,2.00743 3.287582,3.10472 c 1.808168,1.70761 3.422425,3.11233 3.587265,3.1216 0.16482,0.01 0.29967,-0.54395 0.29967,-1.2294 z m -16.887957,-1.68182 c 0.338346,-0.30476 0.911061,-0.30476 2.254734,0 0.99065,0.22471 2.175708,0.40856 2.633451,0.40856 0.779456,0 0.796176,-0.0628 0.263539,-0.99066 -0.878465,-1.53023 -2.036023,-2.29152 -3.810194,-2.50587 -0.892863,-0.10788 -1.829718,-0.42008 -2.081909,-0.6938 -1.078843,-1.17097 -2.121291,1.71342 -1.308666,3.62099 0.282393,0.66288 1.394764,0.75016 2.049045,0.16078 z m -6.169441,-1.18621 c 0.317098,-1.76016 -0.622038,-5.00176 -1.948677,-6.72616 -1.265097,-1.64443 -4.888954,-4.67276 -6.822398,-5.70124 l -1.261036,-0.6708 1.158795,1.54664 c 0.637336,0.85067 1.807193,3.22527 2.59967,5.27688 0.792496,2.05163 1.625253,4.05417 1.850588,4.45009 1.795529,3.15484 4.018233,4.07174 4.423058,1.82459 z m 17.776309,-9.78468 0.847217,-1.48132 -1.420024,0.43974 c -0.781004,0.24187 -1.578711,0.66551 -1.772668,0.94143 -0.19397,0.27593 -0.34487,1.79743 -0.33534,3.38114 l 0.0174,2.87945 0.908137,-2.33956 c 0.499477,-1.28675 1.289391,-3.00615 1.755358,-3.82088 z m 25.836069,112.43024 c 0.11703,-0.64337 0.38564,-2.14159 0.59681,-3.32937 0.57665,-3.24355 1.16844,-11.98667 1.41882,-20.96147 0.19245,-6.89925 0.80361,-13.02167 1.62628,-16.29144 0.12445,-0.4949 0.3844,-1.54771 0.57752,-2.33955 1.09589,-4.49343 1.86091,-6.76048 3.09724,-9.17827 1.68431,-3.2939 2.67183,-4.31917 4.16013,-4.31917 1.01731,0 1.27443,0.28482 2.68067,2.96943 0.85548,1.63319 1.85394,3.77929 2.21881,4.76909 0.36486,0.98982 0.95446,2.49918 1.31024,3.35416 l 0.64684,1.5545 0.56175,-1.49693 c 0.49339,-1.31477 0.4877,-1.54772 -0.0468,-1.91442 -0.72379,-0.49658 -1.44368,-2.12101 -1.44368,-3.25766 0,-0.4475 -0.44043,-1.18638 -0.97876,-1.64192 -1.39092,-1.17708 -2.61741,-3.71983 -2.61741,-5.42647 0,-2.87929 1.69822,-4.8091 6.90679,-7.84866 7.42411,-4.33249 18.09523,-5.20114 28.95597,-2.35709 2.76747,0.72471 4.63266,1.49226 6.75041,2.77788 0.91119,0.55317 2.97899,1.41963 4.5951,1.92548 2.43401,0.76185 3.69285,0.92331 7.33371,0.94066 2.64352,0.0122 4.79346,-0.1511 5.39425,-0.41069 0.88048,-0.38042 0.76163,-0.40925 -1.00205,-0.24308 -4.6085,0.43423 -12.11749,-1.03542 -16.01237,-3.13393 -1.74803,-0.9418 -2.16518,-1.3499 -2.16518,-2.11819 0,-1.65072 -0.86588,-1.92842 -6.43979,-2.0654 -4.61082,-0.11332 -5.1432,-0.19373 -5.36027,-0.80984 -0.1326,-0.37623 -0.13925,-0.97295 -0.0151,-1.32604 0.43239,-1.22715 1.9375,-1.72847 10.00752,-3.33322 1.09372,-0.21748 4.53175,-0.54063 7.64008,-0.71809 5.57225,-0.31812 7.65733,-0.73169 11.34901,-2.25103 2.16333,-0.89034 6.53408,-3.42195 8.19129,-4.74454 l 1.19873,-0.95668 -1.72443,0.21197 c -0.94842,0.11659 -4.09509,1.23833 -6.99256,2.49279 -6.30944,2.73166 -7.96794,3.13293 -13.51003,3.26871 -7.22866,0.17711 -16.82885,2.75605 -23.55204,6.32688 -3.03406,1.61146 -3.16886,1.53615 -3.16886,-1.77044 0,-4.22309 1.1753,-6.15862 4.49935,-7.40971 1.3214,-0.49734 2.86189,-0.6064 7.33841,-0.51957 1.3401,0.026 4.52299,-1.27725 6.14693,-2.51686 l 0.99512,-0.75962 -1.0847,0.34815 c -1.69238,0.54318 -1.7552,-0.195 -0.15255,-1.79294 0.78419,-0.78188 2.48778,-3.32679 3.78577,-5.65535 1.298,-2.32858 3.13131,-5.10379 4.074,-6.16714 l 1.71402,-1.93336 3.02407,0.23846 c 4.91927,0.38789 10.61229,2.1243 14.24466,4.34474 0.81265,0.49677 1.74419,0.90322 2.07008,0.90322 1.05282,0 -0.1715,-0.94116 -3.53499,-2.71739 -3.16399,-1.67089 -4.03339,-2.78377 -2.46343,-3.15335 0.38459,-0.0906 -0.61464,-0.18339 -2.2205,-0.20635 -5.70856,-0.0816 -8.39206,-1.37905 -7.85435,-3.79742 0.53723,-2.41618 2.41267,-6.09591 3.86375,-7.58086 2.43586,-2.49273 2.86408,-3.75654 2.68342,-7.91981 -0.0859,-1.97963 -0.14936,-5.42148 -0.14105,-7.64855 0.009,-2.22708 -0.0962,-4.04923 -0.23222,-4.04923 -0.13606,0 -0.62375,0.60738 -1.08383,1.34975 -0.96161,1.55155 -2.24885,8.58421 -1.88821,10.31587 0.18049,0.86669 -0.23623,2.05869 -1.83741,5.25566 -4.3042,8.59383 -6.46495,12.10022 -9.60442,15.58561 -1.69358,1.88018 -1.87099,1.97435 -4.45545,2.36487 -7.88666,1.19172 -14.25869,4.69993 -16.66318,9.17417 -0.65301,1.21511 -1.185,1.72107 -1.95893,1.86308 -3.13731,0.57571 -4.58911,1.13902 -7.92345,3.07436 -2.01543,1.16981 -3.85504,2.12692 -4.08803,2.12692 -0.233,0 -0.52513,-0.44542 -0.64918,-0.98982 -0.69531,-3.05102 -2.04696,-5.82619 -5.65363,-11.60779 -1.35612,-2.17391 -2.12754,-4.90184 -2.12754,-7.52354 0,-2.25498 0.0975,-2.57603 0.89905,-2.96104 1.29077,-0.61998 7.40386,-5.05186 9.86516,-7.15207 0.348,-0.29694 1.97926,-1.65944 3.62501,-3.02775 6.39031,-5.31306 7.5874,-6.43398 7.5874,-7.10457 0,-1.01866 1.35792,-3.22428 2.66054,-4.32144 1.97038,-1.6596 3.85897,-2.1046 10.50903,-2.47623 7.1584,-0.40003 9.53043,-0.66496 9.82725,-1.09757 0.41913,-0.61089 -2.13844,-0.85938 -8.61213,-0.83671 -3.81608,0.0136 -7.46031,0.21256 -8.65222,0.47296 -2.32823,0.50865 -4.45416,2.12849 -13.52417,10.30472 -5.68007,5.1203 -10.50704,8.80645 -11.53198,8.80645 -1.47564,0 -0.8024,-1.75094 4.84374,-12.59761 2.8137,-5.40534 3.43478,-7.30794 3.1596,-9.67936 l -0.24456,-2.10783 3.08532,-1.64415 c 3.35648,-1.78864 5.18691,-3.02575 7.15414,-4.83518 1.21447,-1.11707 2.52417,-1.54932 2.52417,-0.83309 0,0.63427 -5.23308,4.52159 -8.31123,6.17388 l -3.07665,1.65149 0.12399,1.76786 c 0.16171,2.30575 -1.2412,6.07181 -4.61389,12.38584 -3.13059,5.86077 -4.1666,7.97937 -3.98286,8.14487 0.31513,0.28386 5.7246,-4.10195 12.46851,-10.10904 3.95578,-3.52359 7.73177,-6.77177 8.39107,-7.21814 1.68455,-1.14054 5.40346,-1.61564 12.6467,-1.61564 6.47084,0 10.32885,0.5956 10.32885,1.59456 0,1.03896 -3.24746,1.70618 -9.875,2.02893 -7.06607,0.34411 -7.99262,0.47651 -10.15337,1.45085 -2.01573,0.90894 -3.37729,2.4954 -4.12196,4.80282 -0.34915,1.08186 -0.98289,2.18663 -1.4083,2.45505 -0.42543,0.26842 -2.89522,2.27941 -5.48843,4.46884 -6.30431,5.32278 -8.63421,7.12223 -12.2667,9.47397 l -3.05774,1.97961 0.20323,2.15959 c 0.26817,2.84969 0.89374,4.34262 4.19342,10.00737 1.5217,2.61241 2.9791,5.51919 3.23863,6.4595 0.25955,0.94033 0.56365,1.70968 0.67577,1.70968 0.11206,0 1.4843,-0.78306 3.04927,-1.74015 2.8206,-1.72498 5.98088,-2.93896 7.65079,-2.93896 0.63309,0 1.07214,-0.41053 1.62702,-1.52137 1.10798,-2.21811 4.74469,-5.38863 7.7591,-6.76447 2.73435,-1.24801 8.64262,-2.87203 10.44854,-2.87203 1.92973,0 6.11081,-5.14385 9.5599,-11.76123 1.11681,-2.14269 2.64436,-5.07276 3.39458,-6.51127 1.15086,-2.20671 1.3662,-3.02232 1.37796,-5.21901 0.0283,-5.25941 1.7387,-10.71484 3.51925,-11.22389 0.41226,-0.11781 1.06208,-0.10625 1.44404,0.0257 0.60171,0.20799 0.65132,0.50964 0.37136,2.25773 -0.38198,2.38499 -0.37854,3.11632 0.0426,9.07905 0.38101,5.39392 -0.12369,7.17832 -2.84149,10.04644 -1.7422,1.83854 -3.93056,6.23152 -3.68901,7.40542 0.26139,1.2703 2.96962,2.08706 7.43257,2.24154 4.28058,0.14819 5.01445,0.50258 3.2393,1.5643 -0.82645,0.4943 -0.76021,0.5638 1.89798,1.99113 3.90966,2.09933 6.08861,3.87501 5.46443,4.45313 -0.60752,0.56269 -4.51609,-0.19086 -5.84601,-1.12708 -2.64852,-1.86449 -8.72193,-3.80895 -13.02125,-4.16889 l -2.67684,-0.2241 -1.43489,1.37001 c -0.78919,0.75351 -2.64661,3.487 -4.12758,6.07444 -1.481,2.58743 -2.97077,4.99484 -3.31063,5.34978 -0.56203,0.587 -0.55699,0.62432 0.0556,0.41258 0.43169,-0.14922 0.76506,-0.0178 0.92854,0.36592 0.37148,0.872 -1.49136,2.459 -4.40091,3.74924 -2.28545,1.01351 -2.75521,1.08984 -6.28009,1.02059 -3.5562,-0.0699 -3.9203,-0.01 -5.4681,0.91342 -2.0905,1.24591 -2.84851,2.56437 -3.15081,5.48053 l -0.23941,2.3093 4.80454,-2.16111 c 2.6425,-1.18861 5.76926,-2.40425 6.94835,-2.70143 7.8995,-1.99091 12.90105,-2.76035 15.72939,-2.41979 2.36259,0.2845 5.77026,-0.65409 11.81804,-3.25508 5.54384,-2.38427 7.67477,-2.98439 9.1249,-2.56979 1.5428,0.44107 0.92915,1.52135 -2.06147,3.62921 -3.37455,2.37843 -8.16064,4.6391 -11.40812,5.38851 -1.25692,0.29007 -4.80119,0.68172 -7.87615,0.87035 -6.79479,0.41681 -13.29408,1.57289 -15.21445,2.70633 -1.89604,1.11908 -0.99552,1.44275 4.54283,1.63282 3.17965,0.1091 5.42533,0.34394 5.70474,0.59652 0.25342,0.22912 0.5797,0.94033 0.72505,1.58048 0.21059,0.92755 0.69353,1.38237 2.37808,2.23965 4.23611,2.15581 11.80275,3.27564 16.63026,2.46121 2.74525,-0.46315 3.57992,-0.11549 2.44192,1.01726 -1.39469,1.38822 -4.23899,1.909 -9.53835,1.7464 -5.5592,-0.17056 -7.85883,-0.76628 -12.31023,-3.18902 -8.47445,-4.61234 -22.87204,-5.30471 -31.31836,-1.50609 -3.12493,1.40538 -6.89267,3.95764 -7.99017,5.41252 -1.72743,2.28993 -1.21903,5.15603 1.3867,7.81762 0.38761,0.39592 0.82445,1.20576 0.97074,1.79965 0.50123,2.03476 1.12472,3.05942 1.86166,3.05942 1.14883,0 1.29314,0.63778 0.39995,1.76769 -1.78397,2.25679 -0.83096,3.60801 5.06463,7.18083 2.39429,1.45097 3.34157,2.71664 2.71585,3.62863 -0.40126,0.58484 -1.27404,0.46054 -3.53507,-0.50342 -3.89318,-1.65983 -6.86172,-5.39228 -9.038,-11.36386 -0.44495,-1.22091 -1.48726,-3.5816 -2.31627,-5.24602 -1.86876,-3.75197 -2.5014,-3.85015 -4.40035,-0.68286 -1.48729,2.48069 -2.59606,5.46136 -3.7489,10.07809 -1.58511,6.34777 -1.95649,9.49124 -2.3389,19.79623 -0.4618,12.44544 -0.64315,14.93247 -1.47631,20.24617 -0.46763,2.98249 -0.78389,4.04922 -1.20047,4.04922 -0.41537,0 -0.50906,-0.31067 -0.35271,-1.16978 z m 27.394,-36.21354 c 0,-0.17072 -1.72176,-1.38717 -3.82611,-2.70324 -2.8903,-1.80758 -3.63223,-2.14983 -3.03334,-1.3993 1.18749,1.48817 2.87428,2.80403 4.6618,3.63662 1.78539,0.83163 2.19765,0.91902 2.19765,0.46592 z m -21.57632,-24.25496 c 2.6e-4,-0.44541 1.07793,-2.1056 2.39453,-3.6893 6.43334,-7.73842 16.99517,-15.50955 20.11925,-14.80326 0.78465,0.1774 1.01919,0.52339 1.23548,1.82268 0.36822,2.21182 -0.34988,4.29602 -2.07168,6.01277 -1.91244,1.90682 -3.81955,3.05122 -8.8919,5.33578 -2.30755,1.03931 -5.14219,2.3176 -6.29923,2.84064 -1.15701,0.52303 -2.76301,1.47737 -3.56886,2.12075 -1.74156,1.39045 -2.91863,1.53565 -2.91759,0.35994 z m 10.7878,-5.60061 c 8.84677,-3.92515 11.56042,-6.06391 11.86542,-9.35174 0.24533,-2.64448 -0.21521,-2.94908 -2.756,-1.82276 -1.16427,0.51611 -3.21484,1.68368 -4.5568,2.59458 -2.84448,1.93078 -10.36273,8.87826 -12.17429,11.25004 l -1.24903,1.63531 1.53843,-0.8674 c 0.84613,-0.47709 4.14566,-2.02418 7.33227,-3.43803 z m -18.26095,2.63006 c -1.4141,-0.89221 -1.88261,-2.77381 -1.3306,-5.3438 0.65348,-3.04228 1.70221,-5.84546 2.98445,-7.97713 1.58315,-2.63191 1.92875,-2.97161 3.78453,-3.72003 1.04375,-0.42094 1.47318,-0.75328 1.1277,-0.87271 -0.79839,-0.27596 -2.54504,-3.65198 -3.26964,-6.3197 -0.81127,-2.98682 -0.78102,-4.89388 0.11113,-7.01002 2.26564,-5.37367 4.97212,-3.76989 6.4798,3.83974 0.81317,4.10423 -0.10522,9.35169 -1.74061,9.94515 -0.48079,0.17448 -0.66893,0.32749 -0.41809,0.34004 0.68002,0.034 1.74158,2.70829 1.74158,4.3873 0,1.86801 -1.04341,5.52542 -1.92023,6.73085 -0.3703,0.50906 -1.25096,2.06764 -1.95705,3.4635 -1.28291,2.53624 -1.81488,2.94847 -3.92541,3.04194 -0.44558,0.0197 -1.19601,-0.20758 -1.66762,-0.50513 z m 5.59962,-4.95772 c 2.14028,-3.79004 2.41404,-4.52297 2.58484,-6.92043 0.19867,-2.78839 -0.4346,-4.49763 -1.66628,-4.49763 -1.6506,0 -4.29113,3.58792 -5.87273,7.97979 -1.83198,5.08716 -1.33308,8.02661 1.32189,7.78837 1.14678,-0.10285 1.41577,-0.42505 3.63228,-4.3501 z m 3.02412,-15.17675 c 0.91078,-3.25827 0.35889,-8.31639 -1.2919,-11.84005 -0.7966,-1.70037 -1.39184,-1.58319 -2.54007,0.50006 -1.0757,1.95164 -1.17307,4.63586 -0.27149,7.48472 0.79039,2.49759 2.50777,5.45437 3.168,5.45437 0.26863,0 0.68959,-0.7196 0.93546,-1.5991 z m -16.9979,18.60588 c -1.5819,-1.52887 -1.8639,-2.51753 -1.77085,-6.20883 0.0748,-2.9636 -0.0754,-3.86324 -1.12616,-6.74973 -0.66679,-1.83171 -2.11651,-4.92465 -3.22161,-6.87322 l -2.00928,-3.54283 v -3.93909 c 0,-2.39415 0.24281,-4.78048 0.61907,-6.08433 0.73105,-2.53323 3.07739,-6.88853 4.5908,-8.5215 l 1.07213,-1.15682 1.73063,0.70297 c 5.26532,2.13877 7.95064,7.5376 7.96351,16.01075 0.003,2.47584 0.1929,5.06735 0.42029,5.75892 0.29285,0.89065 0.27774,1.9226 -0.0517,3.53821 -0.6047,2.96462 -1.27266,4.45634 -4.10792,9.17402 l -2.34163,3.8963 0.62403,1.97594 c 0.3432,1.08677 0.52499,2.2084 0.40396,2.4925 -0.35158,0.82531 -1.68516,0.59951 -2.79517,-0.47326 z m 1.2693,-1.8713 c -0.83359,-2.12822 -0.70196,-2.49218 3.19593,-8.83668 1.99296,-3.24387 3.15848,-7.05881 2.78618,-9.11972 -0.16674,-0.92303 -0.34238,-3.78382 -0.39033,-6.35733 -0.0913,-4.90074 -0.64998,-7.51662 -2.18369,-10.22469 -1.72591,-3.04741 -5.47701,-5.92082 -6.61689,-5.06866 -0.26655,0.19927 -1.40343,2.02112 -2.52639,4.04855 -1.67759,3.02874 -2.11348,4.21942 -2.44387,6.67558 -0.61388,4.56368 -0.20276,6.94168 1.7876,10.33977 0.93137,1.59009 2.29289,4.42455 3.0256,6.2988 1.16354,2.97626 1.34229,3.90897 1.41182,7.36696 0.0438,2.17758 0.0952,4.06829 0.11414,4.20157 0.055,0.38569 2.1155,2.50232 2.28621,2.34853 0.0849,-0.0765 -0.11598,-0.82917 -0.44637,-1.67268 z m 18.57305,-3.2693 c 0,-0.20432 0.26275,-0.93799 0.58392,-1.63038 1.23747,-2.66785 1.45531,-5.17902 0.79536,-9.16926 -0.91687,-5.54359 -1.34198,-8.65774 -1.36173,-9.97485 -0.0441,-2.93951 3.83697,-0.23169 5.91039,4.12368 0.84936,1.78414 0.99606,2.65668 1.01619,6.04439 0.0188,3.16142 -0.12217,4.20405 -0.69938,5.17403 -0.76767,1.29 -4.06571,5.08425 -4.80544,5.52843 -0.64301,0.3861 -1.43931,0.33298 -1.43931,-0.096 z m 5.43035,-6.56506 c 1.05438,-2.85954 0.64535,-7.38008 -0.9363,-10.34772 -0.68802,-1.29091 -1.73518,-2.74863 -2.32705,-3.23938 l -1.07609,-0.89227 0.27936,2.87944 c 0.15365,1.58371 0.48477,3.6893 0.73581,4.67912 0.25105,0.98981 0.46425,3.77516 0.47379,6.18967 l 0.0174,4.39 1.08815,-0.9388 c 0.59848,-0.51634 1.38372,-1.74036 1.74496,-2.72006 z m -34.15795,3.74472 c -3.380237,-3.84446 -8.838577,-15.7544 -9.638064,-21.0299 -0.477497,-3.15089 -0.103907,-4.70498 1.171324,-4.8724 1.853181,-0.24329 4.242846,2.8149 7.90643,10.11821 2.64584,5.27447 4.90865,11.27468 5.19969,13.78786 0.28225,2.4373 -0.29722,3.38841 -2.06442,3.38841 -1.09098,0 -1.58639,-0.26786 -2.57496,-1.39218 z m 3.55438,-1.49031 c 0,-4.07207 -7.724174,-20.27032 -10.979596,-23.02524 l -0.967014,-0.81832 -0.271377,0.97397 c -0.42837,1.53743 0.147697,4.7215 1.495891,8.26807 0.682984,1.79668 1.373051,3.42868 1.533481,3.62664 0.16043,0.19796 0.659577,1.25968 1.109214,2.35936 2.477101,6.05818 6.287611,11.30965 7.531571,10.37967 0.3013,-0.22523 0.54783,-1.01912 0.54783,-1.76415 z m 49.84426,-9.56759 c -1.13741,-1.02455 0.58252,-4.54626 3.34715,-6.85366 3.10043,-2.58764 4.9818,-3.23817 10.43462,-3.608 2.57284,-0.17451 2.71088,-0.14295 3.14703,0.71932 0.37785,0.74701 0.30494,1.18322 -0.42469,2.54089 -0.91767,1.70758 -4.07776,4.52808 -6.18732,5.5224 -2.56458,1.2088 -9.57266,2.34936 -10.31679,1.67905 z m 3.93494,-1.04346 c 1.07881,-0.2948 2.30141,-0.53775 2.71688,-0.5399 2.09136,-0.0109 7.57387,-3.79981 8.9874,-6.21129 0.71216,-1.21493 0.33399,-2.07103 -0.9148,-2.07103 -1.88592,0 -6.38541,1.1311 -8.09994,2.03619 -3.1785,1.67792 -6.91092,6.29073 -5.66534,7.00166 0.71077,0.40569 0.69896,0.40655 2.9758,-0.21563 z m -72.240259,-2.79521 c -2.698387,-1.474 -6.653233,-5.19836 -6.929691,-6.52579 -0.364096,-1.74819 0.61858,-3.2388 2.60776,-3.95575 2.140063,-0.77133 3.701587,-0.73767 5.567955,0.11999 1.695656,0.77923 2.006673,1.23968 2.44169,3.61465 0.16316,0.89083 0.523237,2.55655 0.800147,3.70162 0.664487,2.74759 0.1745,3.85775 -1.701511,3.8551 -0.718947,-0.001 -1.972804,-0.36545 -2.78635,-0.80984 z m 3.603927,-1.10992 c 0.0698,-0.53145 -0.15498,-1.83965 -0.49947,-2.90709 -0.344487,-1.06746 -0.626344,-2.34807 -0.626344,-2.8458 0,-1.39261 -0.39494,-2.02301 -1.626871,-2.59687 -2.583159,-1.20326 -6.424756,0.0268 -6.696155,2.14416 -0.111604,0.87015 0.317416,1.42215 2.797019,3.59919 2.777554,2.43863 5.245357,3.92194 6.125364,3.68174 0.219767,-0.06 0.456667,-0.54389 0.526457,-1.07533 z m 24.898242,-16.87476 c -0.95597,-0.83581 -2.52746,-2.60885 -3.49217,-3.9401 l -1.75404,-2.42044 0.008,-4.24834 c 0.008,-4.54635 0.6328,-8.47536 1.99241,-12.52678 0.97347,-2.9008 1.14533,-3.24552 3.69456,-7.41055 2.08506,-3.40668 3.07375,-4.41325 4.15125,-4.22632 1.27652,0.22144 1.56474,2.22162 0.81547,5.65925 -0.56588,2.59623 -0.66582,5.20039 -0.61693,16.07418 0.042,9.3513 -0.0729,13.19707 -0.41184,13.76738 -0.76775,1.29223 -2.38157,1.02426 -4.38606,-0.72828 z m 3.63406,-3.88321 c 0.15919,-2.27443 0.18535,-8.10358 0.0581,-12.95366 -0.19309,-7.36249 -0.1255,-9.2231 0.40984,-11.27018 0.7874,-3.01136 0.8577,-5.77045 0.14166,-5.5593 -0.27471,0.0811 -1.61569,1.89761 -2.97993,4.03689 -3.5958,5.63858 -5.02797,10.31275 -5.5188,18.01161 l -0.27534,4.31917 1.70369,2.33956 c 2.13613,2.93335 4.7731,5.45139 5.56623,5.31516 0.47787,-0.082 0.66597,-0.97348 0.89452,-4.23925 z m 7.05208,2.4778 c -0.91318,-0.8226 -0.91335,-0.58306 0.005,-7.69291 0.30561,-2.36657 0.26835,-2.5696 -0.61378,-3.34415 -1.73768,-1.52575 -2.53698,-3.45052 -2.53698,-6.10924 0,-2.13037 0.16717,-2.70405 1.23652,-4.24354 1.71958,-2.47562 14.12869,-13.47792 15.20127,-13.47792 0.61036,0 -1.03386,1.66938 -6.11527,6.20883 -3.82255,3.41484 -7.48412,6.92387 -8.13682,7.79784 -2.93045,3.9238 -0.24452,10.01966 4.66579,10.58928 1.6511,0.19153 1.97784,0.10706 2.94961,-0.76245 2.19328,-1.96248 3.31839,-5.50149 3.52899,-11.10034 0.1255,-3.33657 0.31741,-4.32612 1.1518,-5.93888 1.57039,-3.03532 2.40141,-3.63653 4.82988,-3.49429 2.01929,0.11821 2.05113,0.10366 3.44958,-1.59032 0.77629,-0.94031 1.73185,-1.70967 2.12343,-1.70967 0.64388,0 0.62568,0.11182 -0.19023,1.16978 -0.49621,0.64338 -1.44558,1.7056 -2.10974,2.36049 -1.1205,1.10488 -1.33764,1.17463 -3.01264,0.96754 -1.56504,-0.19349 -1.92463,-0.10856 -2.70382,0.63856 -1.55887,1.4947 -2.48234,4.55243 -2.49527,8.26209 -0.0183,5.26038 -2.17797,10.87497 -4.55892,11.85217 -0.80276,0.32948 -0.94294,0.71241 -1.14545,3.12944 -0.47937,5.72145 -3.0374,8.72642 -5.52273,6.48769 z m 3.12301,-1.66406 c 0.80104,-1.70498 1.71346,-4.72687 1.71167,-5.66893 -0.001,-1.10193 -0.45677,-1.49405 -2.03526,-1.75533 l -1.44677,-0.23946 -0.2504,1.89723 c -0.89041,6.74632 -0.86159,7.11622 0.55453,7.11622 0.5824,0 1.02237,-0.40501 1.46623,-1.34973 z m -25.13315,-8.83081 c -1.67378,-1.4642 -2.87608,-4.22025 -3.50698,-8.03918 -0.50806,-3.07531 -0.27502,-5.01569 1.07549,-8.95511 0.33933,-0.98981 0.91982,-3.00408 1.29,-4.47617 0.37017,-1.47208 0.88728,-2.74083 1.14913,-2.81946 0.8512,-0.25559 0.45425,1.774 -1.78706,9.13733 -1.0573,3.47353 -1.08745,3.79069 -0.65426,6.88212 0.49276,3.51647 1.6875,6.12188 3.50943,7.65306 1.04761,0.88045 1.08291,0.88478 1.63785,0.20116 0.41362,-0.50953 0.56715,-1.84325 0.56715,-4.92672 0,-4.19134 0.40821,-6.4992 1.93351,-10.93145 1.1216,-3.25921 3.70034,-8.09847 4.31551,-8.09847 0.71393,0 0.72465,-0.045 -0.61632,2.58439 -3.46956,6.80315 -4.54038,10.65495 -4.63886,16.68625 -0.0456,2.79022 -0.2683,5.01601 -0.54929,5.48896 -0.68345,1.15034 -2.14122,0.99902 -3.7253,-0.38671 z m 19.50214,-17.26424 c 0.40207,-5.46774 0.63702,-7.10865 1.01786,-7.10865 0.24082,0 0.34474,1.43148 0.26788,3.68999 l -0.12566,3.69 4.14459,-3.69 c 2.96379,-2.6387 4.42058,-3.68999 5.11331,-3.68999 0.87168,0 0.76211,0.17124 -1.09403,1.70967 -3.37856,2.80029 -6.34874,5.51687 -7.43678,6.80185 -1.65585,1.95553 -2.10938,1.6184 -1.88721,-1.40287 z"
       id="path826-12"
       inkscape:connector-curvature="0" />
  </g>
</svg>
